<svg width="40" height="40" viewBox="0 0 40 40" fill="none" xmlns="http://www.w3.org/2000/svg">
<path fill-rule="evenodd" clip-rule="evenodd" d="M20 0C8.95431 0 0 8.95431 0 20C0 31.0457 8.95431 40 20 40C31.0457 40 40 31.0457 40 20C40 8.95431 31.0457 0 20 0ZM18.7773 13.2983C18.7353 12.5941 19.2951 12 20.0005 12C20.7055 12 21.2652 12.5934 21.2239 13.2972L20.6929 22.3508C20.6715 22.7153 20.3697 23 20.0046 23C19.6397 23 19.3379 22.7157 19.3162 22.3514L18.7773 13.2983ZM21.3 26.6999C21.3 27.4179 20.718 27.9999 20 27.9999C19.2821 27.9999 18.7 27.4179 18.7 26.6999C18.7 25.9819 19.2821 25.3999 20 25.3999C20.718 25.3999 21.3 25.9819 21.3 26.6999Z" fill="#000"/>
</svg>
