<svg width="60" height="10" viewBox="0 0 60 10" fill="none" xmlns="http://www.w3.org/2000/svg"><path fill-rule="evenodd" clip-rule="evenodd" d="M6 8.11861L2.90983 9.5L3.27016 6.13746L1 3.62868L4.31287 2.93191L6 0L7.68713 2.93191L11 3.62868L8.72984 6.13746L9.09017 9.5L6 8.11861Z" fill="#000"/><path fill-rule="evenodd" clip-rule="evenodd" d="M18 8.11861L14.9098 9.5L15.2702 6.13746L13 3.62868L16.3129 2.93191L18 0L19.6871 2.93191L23 3.62868L20.7298 6.13746L21.0902 9.5L18 8.11861Z" fill="#000"/><path fill-rule="evenodd" clip-rule="evenodd" d="M30 8.11861L26.9098 9.5L27.2702 6.13746L25 3.62868L28.3129 2.93191L30 0L31.6871 2.93191L35 3.62868L32.7298 6.13746L33.0902 9.5L30 8.11861Z" fill="#000"/><path fill-rule="evenodd" clip-rule="evenodd" d="M42 8.11861L38.9098 9.5L39.2702 6.13746L37 3.62868L40.3129 2.93191L42 0L43.6871 2.93191L47 3.62868L44.7298 6.13746L45.0902 9.5L42 8.11861Z" fill="#000"/><path fill-rule="evenodd" clip-rule="evenodd" d="M54 8.11861L50.9098 9.5L51.2702 6.13746L49 3.62868L52.3129 2.93191L54 0L55.6871 2.93191L59 3.62868L56.7298 6.13746L57.0902 9.5L54 8.11861Z" fill="#000"/></svg>