<svg width="30" height="30" viewBox="0 0 30 30" fill="none" xmlns="http://www.w3.org/2000/svg">
<path d="M25.2929 3.29289C25.6834 2.90237 26.3166 2.90237 26.7071 3.29289C27.0976 3.68342 27.0976 4.31658 26.7071 4.70711L21.4142 10H25C25.5523 10 26 10.4477 26 11C26 11.5523 25.5523 12 25 12H19.0007L18.997 12C18.7254 11.9992 18.4792 11.8901 18.2995 11.7136L18.2864 11.7005C18.1937 11.6062 18.1236 11.498 18.0759 11.3828C18.0274 11.2657 18.0004 11.1375 18 11.003L18 11V5C18 4.44772 18.4477 4 19 4C19.5523 4 20 4.44772 20 5V8.58579L25.2929 3.29289Z" fill="#2E2F38"/>
<path fill-rule="evenodd" clip-rule="evenodd" d="M25.9994 22.9806C26.0028 23.8278 25.6483 24.637 25.0231 25.2094C24.3984 25.7814 23.5613 26.0639 22.6994 25.986C19.4498 25.6336 16.3282 24.5254 13.5933 22.7553C11.0397 21.1358 8.8746 18.975 7.25656 16.4336C5.47145 13.6835 4.36051 10.5523 4.01225 7.27813C3.93608 6.43695 4.21764 5.60265 4.78793 4.97915C5.35781 4.35608 6.16354 4.00089 7.0093 4.0001L10.0163 4.00015C11.5272 3.98531 12.8157 5.09121 13.0287 6.59528C13.1461 7.4839 13.3639 8.35642 13.677 9.19394C14.0911 10.2934 13.8262 11.533 12.9951 12.3718L12.2725 13.093C13.4563 14.947 15.0329 16.52 16.891 17.7012L17.6198 16.9739C18.4556 16.149 19.6954 15.8851 20.793 16.2969C21.6348 16.6104 22.5095 16.8278 23.4092 16.9463C24.9184 17.1588 26.0304 18.4639 25.9994 19.985L25.9994 22.9806ZM23.9994 19.9738L23.9997 19.949C24.0124 19.4382 23.639 18.9984 23.1393 18.928C22.0992 18.7911 21.0779 18.5372 20.0928 18.1703C19.7227 18.0314 19.3055 18.1203 19.0286 18.3934L17.7515 19.668C17.4334 19.9855 16.9425 20.0518 16.5516 19.8299C13.8775 18.3124 11.6633 16.1026 10.1427 13.4336C9.91951 13.0419 9.98605 12.5493 10.3052 12.2308L11.5783 10.9602C11.8553 10.6807 11.9438 10.2664 11.8045 9.89663C11.4376 8.91533 11.1831 7.89573 11.0472 6.86652C10.9763 6.36615 10.5439 5.99506 10.0261 6.0001L7.01024 6.0001C6.72597 6.00037 6.45504 6.1198 6.26371 6.32898C6.07278 6.53773 5.97865 6.81666 6.00256 7.08214C6.31599 10.0278 7.32029 12.8585 8.93888 15.3521C10.4039 17.6531 12.3587 19.604 14.6722 21.0713C17.1526 22.6766 19.9759 23.6789 22.897 23.9959C23.1811 24.0215 23.4627 23.9265 23.6725 23.7343C23.882 23.5425 24.0005 23.2719 23.9994 22.9846V19.9738Z" fill="#2E2F38"/>
</svg>
