<svg width="20" height="20" viewBox="0 0 20 20" fill="none" xmlns="http://www.w3.org/2000/svg">
<path fill-rule="evenodd" clip-rule="evenodd" d="M13 7C13 8.65685 11.6569 10 10 10C8.34315 10 7 8.65685 7 7C7 5.34315 8.34315 4 10 4C11.6569 4 13 5.34315 13 7ZM9 7C9 7.55228 9.44772 8 10 8C10.5523 8 11 7.55228 11 7C11 6.44772 10.5523 6 10 6C9.44772 6 9 6.44772 9 7Z" fill="#2E2F38"/>
<path fill-rule="evenodd" clip-rule="evenodd" d="M10 0C6.11709 0 3 3.19992 3 7.1091C3 10.1355 4.66291 13.0767 6.19313 15.1669C6.97279 16.2318 7.75047 17.1192 8.33304 17.7404C8.62486 18.0516 8.86908 18.2975 9.04195 18.4671C9.12842 18.5519 9.19714 18.6177 9.24516 18.6631C9.26917 18.6859 9.28801 18.7035 9.30132 18.7159L9.31709 18.7305L9.32177 18.7349L9.3233 18.7363C9.32352 18.7365 9.32428 18.7372 10 18L9.32428 18.7372C9.7066 19.0876 10.2934 19.0876 10.6757 18.7372L10 18C10.6757 18.7372 10.6755 18.7374 10.6757 18.7372L10.6782 18.7349L10.6829 18.7305L10.6987 18.7159C10.712 18.7035 10.7308 18.6859 10.7548 18.6631C10.8029 18.6177 10.8716 18.5519 10.958 18.4671C11.1309 18.2975 11.3751 18.0516 11.667 17.7404C12.2495 17.1192 13.0272 16.2318 13.8069 15.1669C15.3371 13.0767 17 10.1355 17 7.1091C17 3.19992 13.8829 0 10 0ZM10.208 16.3724C10.1352 16.45 10.0657 16.5232 10 16.5916C9.93429 16.5232 9.8648 16.45 9.79196 16.3724C9.24953 15.7939 8.52721 14.9693 7.80687 13.9854C6.33709 11.9778 5 9.47363 5 7.1091C5 4.27036 7.25549 2 10 2C12.7445 2 15 4.27036 15 7.1091C15 9.47363 13.6629 11.9778 12.1931 13.9854C11.4728 14.9693 10.7505 15.7939 10.208 16.3724Z" fill="#2E2F38"/>
</svg>
