<svg width="20" height="20" viewBox="0 0 20 20" fill="none" xmlns="http://www.w3.org/2000/svg">
<path fill-rule="evenodd" clip-rule="evenodd" d="M16.9994 13.483V15.5888C16.9999 15.6984 17.0001 15.8551 17.0002 16.0244C17.0005 16.5641 16.5715 17.0086 16.0318 17.0084C15.8074 17.0083 15.5963 17.0043 15.4663 16.9926C13.3021 16.7579 11.2234 16.0198 9.39693 14.8377C7.69767 13.76 6.257 12.3222 5.17722 10.6262C3.98865 8.79507 3.24898 6.71023 3.01813 4.54062C3.00647 4.41183 3.00246 4.20276 3.00234 3.97999C3.00205 3.43969 3.4476 3.01061 3.9879 3.01059C4.15486 3.01059 4.30926 3.01055 4.41767 3.01044H6.52752C7.23353 3.00351 7.83528 3.52001 7.93409 4.21774C8.02315 4.89162 8.1883 5.55329 8.42639 6.19012C8.61961 6.70313 8.49603 7.28146 8.10992 7.67116L7.21674 8.56259C8.21791 10.3199 9.67575 11.7749 11.4365 12.7741L12.3296 11.8826C12.7201 11.4973 13.2995 11.3739 13.8136 11.5668C14.4516 11.8044 15.1146 11.9692 15.7898 12.0581C16.497 12.1577 17.0172 12.7704 16.9994 13.483Z" fill="#2E2F38"/>
</svg>
