<svg width="20" height="20" viewBox="0 0 20 20" fill="none" xmlns="http://www.w3.org/2000/svg">
<g clip-path="url(#clip0)">
<path fill-rule="evenodd" clip-rule="evenodd" d="M3 2C1.34315 2 0 3.34315 0 5V15C0 16.6569 1.34315 18 3 18H17C18.6569 18 20 16.6569 20 15V5C20 3.34315 18.6569 2 17 2H3ZM2 5C2 4.44772 2.44772 4 3 4H17C17.5523 4 18 4.44772 18 5V15C18 15.5523 17.5523 16 17 16H3C2.44772 16 2 15.5523 2 15V5ZM5.08817 5.69126C4.64152 5.36643 4.0161 5.46518 3.69126 5.91183C3.36643 6.35848 3.46518 6.9839 3.91183 7.30874L8.23549 10.4532C9.28744 11.2183 10.7126 11.2183 11.7645 10.4532L16.0882 7.30874C16.5348 6.9839 16.6336 6.35848 16.3087 5.91183C15.9839 5.46518 15.3585 5.36643 14.9118 5.69126L10.5882 8.83574C10.2375 9.09076 9.76248 9.09076 9.41183 8.83574L5.08817 5.69126Z" fill="#2E2F38"/>
</g>
<defs>
<clipPath id="clip0">
<rect width="20" height="20" fill="white"/>
</clipPath>
</defs>
</svg>
