<svg width="30" height="30" viewBox="0 0 30 30" fill="none" xmlns="http://www.w3.org/2000/svg">
<path fill-rule="evenodd" clip-rule="evenodd" d="M25 14C25.5523 14 26 14.4477 26 15C26 15.5523 25.5523 16 25 16H5C4.44772 16 4 15.5523 4 15C4 14.4477 4.44772 14 5 14H25ZM25 7C25.5523 7 26 7.44772 26 8C26 8.55228 25.5523 9 25 9H5C4.44772 9 4 8.55228 4 8C4 7.44772 4.44772 7 5 7L25 7ZM5 23C4.44772 23 4 22.5523 4 22C4 21.4477 4.44772 21 5 21H25C25.5523 21 26 21.4477 26 22C26 22.5523 25.5523 23 25 23H5Z" fill="#2E2F38"/>
</svg>
