<svg width="30" height="30" viewBox="0 0 30 30" fill="none" xmlns="http://www.w3.org/2000/svg">
<path fill-rule="evenodd" clip-rule="evenodd" d="M5 6C5 5.44772 5.44772 5 6 5H8C8.55228 5 9 5.44772 9 6V8C9 8.55228 8.55228 9 8 9H6C5.44772 9 5 8.55228 5 8V6ZM5 14C5 13.4477 5.44772 13 6 13H8C8.55228 13 9 13.4477 9 14V16C9 16.5523 8.55228 17 8 17H6C5.44772 17 5 16.5523 5 16V14ZM5 22C5 21.4477 5.44772 21 6 21H8C8.55228 21 9 21.4477 9 22V24C9 24.5523 8.55228 25 8 25H6C5.44772 25 5 24.5523 5 24V22ZM21 6C21 5.44772 21.4477 5 22 5H24C24.5523 5 25 5.44772 25 6V8C25 8.55228 24.5523 9 24 9H22C21.4477 9 21 8.55228 21 8V6ZM21 14C21 13.4477 21.4477 13 22 13H24C24.5523 13 25 13.4477 25 14V16C25 16.5523 24.5523 17 24 17H22C21.4477 17 21 16.5523 21 16V14ZM21 22C21 21.4477 21.4477 21 22 21H24C24.5523 21 25 21.4477 25 22V24C25 24.5523 24.5523 25 24 25H22C21.4477 25 21 24.5523 21 24V22ZM13 6C13 5.44772 13.4477 5 14 5H16C16.5523 5 17 5.44772 17 6V8C17 8.55228 16.5523 9 16 9H14C13.4477 9 13 8.55228 13 8V6ZM13 14C13 13.4477 13.4477 13 14 13H16C16.5523 13 17 13.4477 17 14V16C17 16.5523 16.5523 17 16 17H14C13.4477 17 13 16.5523 13 16V14ZM13 22C13 21.4477 13.4477 21 14 21H16C16.5523 21 17 21.4477 17 22V24C17 24.5523 16.5523 25 16 25H14C13.4477 25 13 24.5523 13 24V22Z" fill="#2E2F38"/>
</svg>
