<svg width="20" height="20" viewBox="0 0 20 20" fill="none" xmlns="http://www.w3.org/2000/svg">
<path fill-rule="evenodd" clip-rule="evenodd" d="M7 9C7 8.44772 6.55228 8 6 8H2C1.44772 8 1 8.44772 1 9C1 9.55228 1.44772 10 2 10H6C6.55228 10 7 9.55228 7 9ZM15 4C15 3.44772 14.5523 3 14 3H2C1.44772 3 1 3.44772 1 4C1 4.55228 1.44772 5 2 5H14C14.5523 5 15 4.55228 15 4ZM1 14C1 14.5523 1.44772 15 2 15H5C5.55228 15 6 14.5523 6 14C6 13.4477 5.55228 13 5 13H2C1.44772 13 1 13.4477 1 14ZM8 12C8 14.7614 10.2386 17 13 17C14.0191 17 14.967 16.6951 15.7574 16.1716L17.2929 17.7071C17.6834 18.0976 18.3166 18.0976 18.7071 17.7071C19.0976 17.3166 19.0976 16.6834 18.7071 16.2929L17.1716 14.7574C17.6951 13.967 18 13.0191 18 12C18 9.23858 15.7614 7 13 7C10.2386 7 8 9.23858 8 12ZM16 12C16 13.6569 14.6569 15 13 15C11.3431 15 10 13.6569 10 12C10 10.3431 11.3431 9 13 9C14.6569 9 16 10.3431 16 12Z" fill="#2E2F38"/>
</svg>
