<svg width="30" height="30" viewBox="0 0 30 30" fill="none" xmlns="http://www.w3.org/2000/svg">
<path d="M12 14C12 13.4477 11.5523 13 11 13H4C3.44772 13 3 13.4477 3 14C3 14.5523 3.44772 15 4 15H11C11.5523 15 12 14.5523 12 14Z" fill="#2E2F38"/>
<path d="M22 8C22 7.44772 21.5523 7 21 7H4C3.44772 7 3 7.44772 3 8C3 8.55228 3.44772 9 4 9H21C21.5523 9 22 8.55228 22 8Z" fill="#2E2F38"/>
<path d="M3 20C3 20.5523 3.44772 21 4 21H10C10.5523 21 11 20.5523 11 20C11 19.4477 10.5523 19 10 19H4C3.44772 19 3 19.4477 3 20Z" fill="#2E2F38"/>
<path fill-rule="evenodd" clip-rule="evenodd" d="M13 18C13 21.866 16.134 25 20 25C21.5723 25 23.0236 24.4816 24.1922 23.6064L27.2929 26.7071C27.6834 27.0976 28.3166 27.0976 28.7071 26.7071C29.0976 26.3166 29.0976 25.6834 28.7071 25.2929L25.6064 22.1922C26.4816 21.0236 27 19.5723 27 18C27 14.134 23.866 11 20 11C16.134 11 13 14.134 13 18ZM25 18C25 20.7614 22.7614 23 20 23C17.2386 23 15 20.7614 15 18C15 15.2386 17.2386 13 20 13C22.7614 13 25 15.2386 25 18Z" fill="#2E2F38"/>
</svg>
