<svg width="20" height="20" viewBox="0 0 20 20" fill="none" xmlns="http://www.w3.org/2000/svg">
<path fill-rule="evenodd" clip-rule="evenodd" d="M2 3C2 2.44772 2.44772 2 3 2H5C5.55228 2 6 2.44772 6 3V5C6 5.55228 5.55228 6 5 6H3C2.44772 6 2 5.55228 2 5V3ZM2 8.99999C2 8.44771 2.44772 7.99999 3 7.99999H5C5.55228 7.99999 6 8.44771 6 8.99999V11C6 11.5523 5.55228 12 5 12H3C2.44772 12 2 11.5523 2 11V8.99999ZM3 14C2.44772 14 2 14.4477 2 15V17C2 17.5523 2.44772 18 3 18H5C5.55228 18 6 17.5523 6 17V15C6 14.4477 5.55228 14 5 14H3ZM8 3C8 2.44772 8.44772 2 9 2H11C11.5523 2 12 2.44772 12 3V5C12 5.55228 11.5523 6 11 6H9C8.44772 6 8 5.55228 8 5V3ZM9 7.99999C8.44772 7.99999 8 8.44771 8 8.99999V11C8 11.5523 8.44772 12 9 12H11C11.5523 12 12 11.5523 12 11V8.99999C12 8.44771 11.5523 7.99999 11 7.99999H9ZM8 15C8 14.4477 8.44772 14 9 14H11C11.5523 14 12 14.4477 12 15V17C12 17.5523 11.5523 18 11 18H9C8.44772 18 8 17.5523 8 17V15ZM15 2C14.4477 2 14 2.44772 14 3V5C14 5.55228 14.4477 6 15 6H17C17.5523 6 18 5.55228 18 5V3C18 2.44772 17.5523 2 17 2H15ZM14 8.99999C14 8.44771 14.4477 7.99999 15 7.99999H17C17.5523 7.99999 18 8.44771 18 8.99999V11C18 11.5523 17.5523 12 17 12H15C14.4477 12 14 11.5523 14 11V8.99999ZM15 14C14.4477 14 14 14.4477 14 15V17C14 17.5523 14.4477 18 15 18H17C17.5523 18 18 17.5523 18 17V15C18 14.4477 17.5523 14 17 14H15Z" fill="#2E2F38"/>
</svg>
