<svg width="30" height="30" viewBox="0 0 30 30" fill="none" xmlns="http://www.w3.org/2000/svg">
<path d="M8 17C9.10457 17 10 16.1046 10 15C10 13.8954 9.10457 13 8 13C6.89543 13 6 13.8954 6 15C6 16.1046 6.89543 17 8 17Z" fill="#2E2F38"/>
<path d="M15 17C16.1046 17 17 16.1046 17 15C17 13.8954 16.1046 13 15 13C13.8954 13 13 13.8954 13 15C13 16.1046 13.8954 17 15 17Z" fill="#2E2F38"/>
<path d="M24 15C24 16.1046 23.1046 17 22 17C20.8954 17 20 16.1046 20 15C20 13.8954 20.8954 13 22 13C23.1046 13 24 13.8954 24 15Z" fill="#2E2F38"/>
</svg>
