<svg width="30" height="30" viewBox="0 0 30 30" fill="none" xmlns="http://www.w3.org/2000/svg">
<path d="M8 12C8 11.4477 8.44772 11 9 11C9.55228 11 10 11.4477 10 12C10 12.5523 9.55228 13 9 13C8.44772 13 8 12.5523 8 12Z" fill="#2E2F38"/>
<path d="M8 16C8 15.4477 8.44772 15 9 15C9.55228 15 10 15.4477 10 16C10 16.5523 9.55228 17 9 17C8.44772 17 8 16.5523 8 16Z" fill="#2E2F38"/>
<path d="M9 19C8.44772 19 8 19.4477 8 20C8 20.5523 8.44772 21 9 21C9.55228 21 10 20.5523 10 20C10 19.4477 9.55228 19 9 19Z" fill="#2E2F38"/>
<path d="M12 12C12 11.4477 12.4477 11 13 11C13.5523 11 14 11.4477 14 12C14 12.5523 13.5523 13 13 13C12.4477 13 12 12.5523 12 12Z" fill="#2E2F38"/>
<path d="M13 15C12.4477 15 12 15.4477 12 16C12 16.5523 12.4477 17 13 17C13.5523 17 14 16.5523 14 16C14 15.4477 13.5523 15 13 15Z" fill="#2E2F38"/>
<path d="M12 20C12 19.4477 12.4477 19 13 19C13.5523 19 14 19.4477 14 20C14 20.5523 13.5523 21 13 21C12.4477 21 12 20.5523 12 20Z" fill="#2E2F38"/>
<path d="M17 11C16.4477 11 16 11.4477 16 12C16 12.5523 16.4477 13 17 13C17.5523 13 18 12.5523 18 12C18 11.4477 17.5523 11 17 11Z" fill="#2E2F38"/>
<path d="M20 12C20 11.4477 20.4477 11 21 11C21.5523 11 22 11.4477 22 12C22 12.5523 21.5523 13 21 13C20.4477 13 20 12.5523 20 12Z" fill="#2E2F38"/>
<path d="M17 15C16.4477 15 16 15.4477 16 16C16 16.5523 16.4477 17 17 17C17.5523 17 18 16.5523 18 16C18 15.4477 17.5523 15 17 15Z" fill="#2E2F38"/>
<path d="M16 20C16 19.4477 16.4477 19 17 19C17.5523 19 18 19.4477 18 20C18 20.5523 17.5523 21 17 21C16.4477 21 16 20.5523 16 20Z" fill="#2E2F38"/>
<path d="M21 15C20.4477 15 20 15.4477 20 16C20 16.5523 20.4477 17 21 17C21.5523 17 22 16.5523 22 16C22 15.4477 21.5523 15 21 15Z" fill="#2E2F38"/>
<path fill-rule="evenodd" clip-rule="evenodd" d="M10 3C10 2.44772 9.55228 2 9 2C8.44772 2 8 2.44772 8 3V4H7C4.79086 4 3 5.79086 3 8V22C3 24.2091 4.79086 26 7 26H23C25.2091 26 27 24.2091 27 22V8C27 5.79086 25.2091 4 23 4H22V3C22 2.44772 21.5523 2 21 2C20.4477 2 20 2.44772 20 3V4H16V3C16 2.44772 15.5523 2 15 2C14.4477 2 14 2.44772 14 3V4H10V3ZM20 6H16V7C16 7.55228 15.5523 8 15 8C14.4477 8 14 7.55228 14 7V6H10V7C10 7.55228 9.55228 8 9 8C8.44772 8 8 7.55228 8 7V6H7C5.89543 6 5 6.89543 5 8V22C5 23.1046 5.89543 24 7 24H23C24.1046 24 25 23.1046 25 22V8C25 6.89543 24.1046 6 23 6H22V7C22 7.55228 21.5523 8 21 8C20.4477 8 20 7.55228 20 7V6Z" fill="#2E2F38"/>
</svg>
