<svg width="20" height="20" viewBox="0 0 20 20" fill="none" xmlns="http://www.w3.org/2000/svg">
<path d="M6 6C5.44772 6 5 6.44772 5 7C5 7.55228 5.44772 8 6 8C6.55228 8 7 7.55228 7 7C7 6.44772 6.55228 6 6 6Z" fill="#2E2F38"/>
<path d="M6 10C5.44772 10 5 10.4477 5 11C5 11.5523 5.44772 12 6 12C6.55228 12 7 11.5523 7 11C7 10.4477 6.55228 10 6 10Z" fill="#2E2F38"/>
<path d="M5 15C5 14.4477 5.44772 14 6 14C6.55228 14 7 14.4477 7 15C7 15.5523 6.55228 16 6 16C5.44772 16 5 15.5523 5 15Z" fill="#2E2F38"/>
<path d="M10 6C9.44772 6 9 6.44772 9 7C9 7.55228 9.44772 8 10 8C10.5523 8 11 7.55228 11 7C11 6.44772 10.5523 6 10 6Z" fill="#2E2F38"/>
<path d="M13 7C13 6.44772 13.4477 6 14 6C14.5523 6 15 6.44772 15 7C15 7.55228 14.5523 8 14 8C13.4477 8 13 7.55228 13 7Z" fill="#2E2F38"/>
<path d="M10 10C9.44772 10 9 10.4477 9 11C9 11.5523 9.44772 12 10 12C10.5523 12 11 11.5523 11 11C11 10.4477 10.5523 10 10 10Z" fill="#2E2F38"/>
<path d="M9 15C9 14.4477 9.44772 14 10 14C10.5523 14 11 14.4477 11 15C11 15.5523 10.5523 16 10 16C9.44772 16 9 15.5523 9 15Z" fill="#2E2F38"/>
<path d="M14 10C13.4477 10 13 10.4477 13 11C13 11.5523 13.4477 12 14 12C14.5523 12 15 11.5523 15 11C15 10.4477 14.5523 10 14 10Z" fill="#2E2F38"/>
<path fill-rule="evenodd" clip-rule="evenodd" d="M6 1C6 0.447715 5.55228 0 5 0C4.44772 0 4 0.447715 4 1V2C2.34315 2 1 3.34315 1 5V17C1 18.6569 2.34315 20 4 20H16C17.6569 20 19 18.6569 19 17V5C19 3.34315 17.6569 2 16 2V1C16 0.447715 15.5523 0 15 0C14.4477 0 14 0.447715 14 1V2H11V1C11 0.447715 10.5523 0 10 0C9.44771 0 9 0.447715 9 1V2H6V1ZM4 4C3.44772 4 3 4.44772 3 5V17C3 17.5523 3.44772 18 4 18H16C16.5523 18 17 17.5523 17 17V5C17 4.44772 16.5523 4 16 4H4Z" fill="#2E2F38"/>
</svg>
