<svg width="30" height="30" viewBox="0 0 30 30" fill="none" xmlns="http://www.w3.org/2000/svg">
<path fill-rule="evenodd" clip-rule="evenodd" d="M7 5C4.79086 5 3 6.79086 3 9V21C3 23.2091 4.79086 25 7 25H23C25.2091 25 27 23.2091 27 21V9C27 6.79086 25.2091 5 23 5H7ZM5 9C5 7.89543 5.89543 7 7 7H23C24.1046 7 25 7.89543 25 9V21C25 22.1046 24.1046 23 23 23H7C5.89543 23 5 22.1046 5 21V9ZM8.65079 9.24074C8.23147 8.88132 7.60017 8.92988 7.24074 9.34921C6.88132 9.76853 6.92988 10.3998 7.34921 10.7593L12.3968 15.0858C13.8948 16.3698 16.1052 16.3698 17.6032 15.0858L22.6508 10.7593C23.0701 10.3998 23.1187 9.76853 22.7593 9.34921C22.3998 8.92988 21.7685 8.88132 21.3492 9.24074L16.3016 13.5673C15.5526 14.2093 14.4474 14.2093 13.6984 13.5673L8.65079 9.24074Z" fill="#2E2F38"/>
</svg>
