<svg width="30" height="30" viewBox="0 0 30 30" fill="none" xmlns="http://www.w3.org/2000/svg">
<path fill-rule="evenodd" clip-rule="evenodd" d="M15 13.5858L22.2929 6.29289C22.6834 5.90237 23.3166 5.90237 23.7071 6.29289C24.0976 6.68342 24.0976 7.31658 23.7071 7.70711L16.4142 15L23.7071 22.2929C24.0976 22.6834 24.0976 23.3166 23.7071 23.7071C23.3166 24.0976 22.6834 24.0976 22.2929 23.7071L15 16.4142L7.70711 23.7071C7.31658 24.0976 6.68342 24.0976 6.29289 23.7071C5.90237 23.3166 5.90237 22.6834 6.29289 22.2929L13.5858 15L6.29289 7.70711C5.90237 7.31658 5.90237 6.68342 6.29289 6.29289C6.68342 5.90237 7.31658 5.90237 7.70711 6.29289L15 13.5858Z" fill="#2E2F38"/>
</svg>
