<svg width="30" height="30" viewBox="0 0 30 30" fill="none" xmlns="http://www.w3.org/2000/svg">
<path fill-rule="evenodd" clip-rule="evenodd" d="M15 7C12.7909 7 11 8.79086 11 11C11 13.2091 12.7909 15 15 15C17.2091 15 19 13.2091 19 11C19 8.79086 17.2091 7 15 7ZM13 11C13 9.89543 13.8954 9 15 9C16.1046 9 17 9.89543 17 11C17 12.1046 16.1046 13 15 13C13.8954 13 13 12.1046 13 11Z" fill="#2E2F38"/>
<path fill-rule="evenodd" clip-rule="evenodd" d="M15 2C10.0294 2 6 6.02944 6 11C6 15.3139 8.14522 19.2749 10.1913 22.0882C11.224 23.5082 12.2552 24.6682 13.0286 25.4738C13.4158 25.8771 13.7398 26.1931 13.9689 26.4099C14.0834 26.5183 14.1744 26.6021 14.2378 26.6597C14.2695 26.6884 14.2943 26.7107 14.3118 26.7263L14.3323 26.7445L14.3384 26.7498L14.3403 26.7515C14.3406 26.7518 14.3415 26.7526 15 26L14.3415 26.7526C14.7185 27.0825 15.2815 27.0825 15.6585 26.7526L15 26C15.6585 26.7526 15.6582 26.7528 15.6585 26.7526L15.6597 26.7515L15.6616 26.7498L15.6677 26.7445L15.6882 26.7263C15.7057 26.7107 15.7305 26.6884 15.7622 26.6597C15.8256 26.6021 15.9166 26.5183 16.0311 26.4099C16.2602 26.1931 16.5842 25.8771 16.9714 25.4738C17.7448 24.6682 18.776 23.5082 19.8087 22.0882C21.8548 19.2749 24 15.3139 24 11C24 6.02944 19.9706 2 15 2ZM15.5286 24.0887C15.3328 24.2927 15.155 24.472 15 24.625C14.845 24.472 14.6672 24.2927 14.4714 24.0887C13.7448 23.3318 12.776 22.2418 11.8087 20.9118C9.85478 18.2251 8 14.6861 8 11C8 7.13401 11.134 4 15 4C18.866 4 22 7.13401 22 11C22 14.6861 20.1452 18.2251 18.1913 20.9118C17.224 22.2418 16.2552 23.3318 15.5286 24.0887Z" fill="#2E2F38"/>
</svg>
