<svg width="20" height="20" viewBox="0 0 20 20" fill="none" xmlns="http://www.w3.org/2000/svg">
<path fill-rule="evenodd" clip-rule="evenodd" d="M5.9988 3.603C5.94786 3.25576 5.64691 2.99654 5.29103 3.00004L5.28121 3.00013L2.71931 3.00008C2.54529 3.00025 2.27475 3.00028 2.00057 3.00026C1.99845 3.33556 2.00263 3.62218 2.01452 3.76139C2.27929 6.23663 3.12384 8.61515 4.48011 10.7047L4.48489 10.712C5.71732 12.6477 7.36174 14.2891 9.30155 15.5193L9.30935 15.5243C11.3935 16.8732 13.7653 17.7161 16.2347 17.9855C16.3759 17.9975 16.6641 18.0016 16.9999 17.9994C16.9999 17.723 16.9996 17.4522 16.9989 17.28L16.9989 17.2759V14.7061L16.9992 14.6937C17.008 14.3387 16.7495 14.0306 16.3938 13.9788C15.5011 13.8609 14.6245 13.6427 13.7808 13.3285L13.7785 13.3277C13.5196 13.2305 13.2281 13.2925 13.0316 13.4852L12.4877 14.028C11.8609 14.6536 10.8523 14.8206 10.0509 14.3048C8.29784 13.1767 6.8058 11.688 5.67479 9.93834C5.15572 9.13536 5.32362 8.12316 5.95225 7.49575L6.49415 6.95491C6.6869 6.75914 6.74793 6.47022 6.65148 6.21412L6.65063 6.21187C6.33569 5.36951 6.11703 4.49435 5.9988 3.603ZM5.27685 1.00008C6.63224 0.989461 7.78922 1.98216 7.97955 3.32607L7.98085 3.33528C8.0791 4.07877 8.26127 4.80881 8.52398 5.51146L8.52313 5.5092C8.89572 6.49847 8.65717 7.6134 7.91332 8.36415L7.90938 8.36813L7.38176 8.8947C8.3458 10.3731 9.60951 11.634 11.0914 12.596L11.6252 12.0632C12.3768 11.3215 13.4913 11.0843 14.4799 11.4547C15.1839 11.7168 15.9153 11.8986 16.6603 11.9967L16.6693 11.9978C18.025 12.1887 19.026 13.3609 18.9989 14.7296V17.2737C18.9996 17.4531 18.9999 17.7325 18.9999 18.0125C19.0001 19.0871 18.1425 19.9912 17.0388 19.9992C16.7014 20.0017 16.3012 19.9997 16.0471 19.9768L16.0381 19.9759L16.0291 19.975C13.2472 19.6733 10.5749 18.7249 8.22648 17.2058C6.04188 15.8195 4.18931 13.9706 2.80015 11.7899C1.27248 9.43506 0.321669 6.75419 0.0248144 3.96422L0.0239836 3.95641L0.0232755 3.94859C0.000399578 3.69594 -0.00162013 3.29796 0.000776637 2.96232C0.00867109 1.85683 0.914974 1.00016 1.98899 1.00026C2.26747 1.00028 2.5426 1.00025 2.71794 1.00008L5.27685 1.00008ZM17.2929 1.29289C17.6834 0.90237 18.3166 0.90237 18.7071 1.29289C19.0977 1.68342 19.0977 2.31658 18.7071 2.70711L15.4142 6H16.3334C16.8856 6 17.3334 6.44772 17.3334 7C17.3334 7.55229 16.8856 8 16.3334 8H13C12.4477 8 12 7.55229 12 7V3.66667C12 3.11438 12.4477 2.66667 13 2.66667C13.5523 2.66667 14 3.11438 14 3.66667V4.58579L17.2929 1.29289Z" fill="#2E2F38"/>
</svg>
