<svg width="20" height="20" viewBox="0 0 20 20" fill="none" xmlns="http://www.w3.org/2000/svg">
<path fill-rule="evenodd" clip-rule="evenodd" d="M18 5H14.8293C14.9398 4.68722 15 4.35064 15 4C15 2.34315 13.6569 1 12 1C11.2316 1 10.5308 1.28885 10 1.76389C9.46924 1.28885 8.76835 1 8 1C6.34315 1 5 2.34315 5 4C5 4.35064 5.06015 4.68722 5.17071 5H2C1.44772 5 1 5.44772 1 6V10C1 10.5523 1.44772 11 2 11V18C2 18.5523 2.44772 19 3 19H17C17.5523 19 18 18.5523 18 18V11C18.5523 11 19 10.5523 19 10V6C19 5.44772 18.5523 5 18 5ZM11 11V17H16V11H11ZM9 17H4V11H9V17ZM3 9V7H17V9H3ZM9 4C9 3.44772 8.55228 3 8 3C7.44772 3 7 3.44772 7 4C7 4.55228 7.44772 5 8 5H9V4ZM11 4V5H12C12.5523 5 13 4.55228 13 4C13 3.44772 12.5523 3 12 3C11.4477 3 11 3.44772 11 4Z" fill="#2E2F38"/>
</svg>
