<svg width="30" height="30" viewBox="0 0 30 30" fill="none" xmlns="http://www.w3.org/2000/svg">
<path fill-rule="evenodd" clip-rule="evenodd" d="M7 5C6.44772 5 6 5.40701 6 5.90909V24.0909C6 24.593 6.44772 25 7 25C7.55229 25 8 24.593 8 24.0909L8 5.90909C8 5.40701 7.55228 5 7 5ZM15 10C14.4477 10 14 10.407 14 10.9091L14 24.0909C14 24.593 14.4477 25 15 25C15.5523 25 16 24.593 16 24.0909V10.9091C16 10.407 15.5523 10 15 10ZM23 17C22.4477 17 22 17.407 22 17.9091L22 24.0909C22 24.593 22.4477 25 23 25C23.5523 25 24 24.593 24 24.0909V17.9091C24 17.407 23.5523 17 23 17ZM26 8H24V6C24 5.44772 23.5523 5 23 5C22.4477 5 22 5.44772 22 6V8H20C19.4477 8 19 8.44772 19 9C19 9.55228 19.4477 10 20 10H22V12C22 12.5523 22.4477 13 23 13C23.5523 13 24 12.5523 24 12V10H26C26.5523 10 27 9.55228 27 9C27 8.44772 26.5523 8 26 8Z" fill="#2E2F38"/>
</svg>
