<svg width="40" height="40" viewBox="0 0 40 40" fill="none" xmlns="http://www.w3.org/2000/svg">
<path d="M25.698 14.3844C26.0854 14.778 26.0803 15.4111 25.6867 15.7985L21.9347 19.4911C21.9773 19.6536 22 19.8241 22 20C22 21.1046 21.1046 22 20 22C18.8954 22 18 21.1046 18 20C18 19.8208 18.0236 19.6472 18.0677 19.4819L15.2929 16.7071C14.9024 16.3166 14.9024 15.6834 15.2929 15.2929C15.6834 14.9024 16.3166 14.9024 16.7071 15.2929L19.482 18.0677C19.6472 18.0236 19.8208 18 20 18C20.1825 18 20.3592 18.0244 20.5271 18.0702L24.2838 14.3731C24.6775 13.9857 25.3106 13.9907 25.698 14.3844Z" fill="#2E2F38"/>
<path fill-rule="evenodd" clip-rule="evenodd" d="M8 20C8 13.3726 13.3726 8 20 8C26.6274 8 32 13.3726 32 20C32 26.6274 26.6274 32 20 32C13.3726 32 8 26.6274 8 20ZM20 10C14.4772 10 10 14.4772 10 20C10 25.5228 14.4772 30 20 30C25.5228 30 30 25.5228 30 20C30 14.4772 25.5228 10 20 10Z" fill="#2E2F38"/>
</svg>
