<svg width="20" height="20" viewBox="0 0 20 20" fill="none" xmlns="http://www.w3.org/2000/svg">
<path d="M16.5897 10.4138C15.0765 7.08482 12.9154 5.5 10.0001 5.5C7.20826 5.5 5.10811 6.95336 3.60629 10C5.10811 13.0466 7.20826 14.5 10.0001 14.5C11.8978 14.5 13.4522 13.8344 14.7268 12.479C15.1052 12.0767 15.738 12.0573 16.1403 12.4356C16.5427 12.814 16.5621 13.4468 16.1838 13.8492C14.5294 15.6083 12.447 16.5 10.0001 16.5C6.24874 16.5 3.40986 14.4182 1.5897 10.4138L1.40161 10L1.5897 9.5862C3.40986 5.58185 6.24874 3.5 10.0001 3.5C13.7514 3.5 16.5903 5.58185 18.4104 9.5862C18.639 10.089 18.4167 10.6818 17.9139 10.9104C17.4111 11.1389 16.8182 10.9166 16.5897 10.4138Z" fill="#2E2F38"/>
<path fill-rule="evenodd" clip-rule="evenodd" d="M10.0001 13C11.6569 13 13.0001 11.6569 13.0001 10C13.0001 8.34315 11.6569 7 10.0001 7C8.34322 7 7.00007 8.34315 7.00007 10C7.00007 11.6569 8.34322 13 10.0001 13ZM10.0001 11C9.44779 11 9.00007 10.5523 9.00007 10C9.00007 9.44772 9.44779 9 10.0001 9C10.5524 9 11.0001 9.44772 11.0001 10C11.0001 10.5523 10.5524 11 10.0001 11Z" fill="#2E2F38"/>
</svg>
