<svg width="20" height="20" viewBox="0 0 20 20" fill="none" xmlns="http://www.w3.org/2000/svg">
<path fill-rule="evenodd" clip-rule="evenodd" d="M10 2C7.23858 2 5 4.23858 5 7C5 9.76142 7.23858 12 10 12C12.7614 12 15 9.76142 15 7C15 4.23858 12.7614 2 10 2ZM7 7C7 5.34315 8.34315 4 10 4C11.6569 4 13 5.34315 13 7C13 8.65685 11.6569 10 10 10C8.34315 10 7 8.65685 7 7ZM4 17C4 15.8954 4.89543 15 6 15H14C15.1046 15 16 15.8954 16 17V18C16 18.5523 16.4477 19 17 19C17.5523 19 18 18.5523 18 18V17C18 14.7909 16.2091 13 14 13H6C3.79086 13 2 14.7909 2 17V18C2 18.5523 2.44772 19 3 19C3.55228 19 4 18.5523 4 18V17Z" fill="#2E2F38"/>
</svg>
