<svg width="30" height="30" viewBox="0 0 30 30" fill="none" xmlns="http://www.w3.org/2000/svg">
<path fill-rule="evenodd" clip-rule="evenodd" d="M9 8C9.55228 8 10 8.44772 10 9V21C10 21.5523 9.55228 22 9 22H5C4.44772 22 4 21.5523 4 21V9C4 8.44772 4.44772 8 5 8H9ZM17 8C17.5523 8 18 8.44772 18 9V21C18 21.5523 17.5523 22 17 22H13.0075C12.4554 22 12.0078 21.5526 12.0075 21.0006L12.0006 9.00058C12.0003 8.44807 12.4481 8 13.0006 8H17ZM21 22C20.4477 22 20 21.5523 20 21V9C20 8.44772 20.4477 8 21 8H25C25.5523 8 26 8.44772 26 9V21C26 21.5523 25.5523 22 25 22H21Z" fill="#2E2F38"/>
</svg>
