<svg width="30" height="30" viewBox="0 0 30 30" fill="none" xmlns="http://www.w3.org/2000/svg">
<path fill-rule="evenodd" clip-rule="evenodd" d="M26 21C26 20.4477 25.5523 20 25 20H5C4.44772 20 4.00001 20.4477 4.00001 21L4.00001 22C4.00001 22.5523 4.44772 23 5.00001 23H25C25.5523 23 26 22.5523 26 22V21ZM19 15.0001C19 14.4478 18.5522 14 17.9999 14.0001L5 14.0011C4.44775 14.0011 4.00008 14.4488 4.00008 15.0011V16C4.00008 16.5523 4.4478 17 5.00008 17H18C18.5523 17 19 16.5523 19 16V15.0001ZM11 8C11.5523 8 12 8.44771 12 9V10C12 10.5523 11.5523 11 11 11H5C4.44772 11 4 10.5523 4 10V9C4 8.44772 4.44772 8 5 8H11Z" fill="#2E2F38"/>
</svg>
