<svg width="30" height="30" viewBox="0 0 30 30" fill="none" xmlns="http://www.w3.org/2000/svg">
<path fill-rule="evenodd" clip-rule="evenodd" d="M9.5 16.5C10.3284 16.5 11 15.8284 11 15C11 14.1716 10.3284 13.5 9.5 13.5C8.67157 13.5 8 14.1716 8 15C8 15.8284 8.67157 16.5 9.5 16.5ZM15 16.5C15.8284 16.5 16.5 15.8284 16.5 15C16.5 14.1716 15.8284 13.5 15 13.5C14.1716 13.5 13.5 14.1716 13.5 15C13.5 15.8284 14.1716 16.5 15 16.5ZM22 15C22 15.8284 21.3284 16.5 20.5 16.5C19.6716 16.5 19 15.8284 19 15C19 14.1716 19.6716 13.5 20.5 13.5C21.3284 13.5 22 14.1716 22 15Z" fill="#2E2F38"/>
</svg>
