<svg width="30" height="30" viewBox="0 0 30 30" fill="none" xmlns="http://www.w3.org/2000/svg">
<path fill-rule="evenodd" clip-rule="evenodd" d="M15.7071 21.7071C16.0976 21.3166 16.0976 20.6834 15.7071 20.2929L10.4142 15L15.7071 9.70711C16.0976 9.31658 16.0976 8.68342 15.7071 8.29289C15.3166 7.90237 14.6834 7.90237 14.2929 8.29289L8.29289 14.2929C7.90237 14.6834 7.90237 15.3166 8.29289 15.7071L14.2929 21.7071C14.6834 22.0976 15.3166 22.0976 15.7071 21.7071ZM21.7071 21.7071C22.0976 21.3166 22.0976 20.6834 21.7071 20.2929L16.4142 15L21.7071 9.70711C22.0976 9.31658 22.0976 8.68342 21.7071 8.29289C21.3166 7.90237 20.6834 7.90237 20.2929 8.29289L14.2929 14.2929C13.9024 14.6834 13.9024 15.3166 14.2929 15.7071L20.2929 21.7071C20.6834 22.0976 21.3166 22.0976 21.7071 21.7071Z" fill="#2E2F38"/>
</svg>
