<svg width="20" height="20" viewBox="0 0 20 20" fill="none" xmlns="http://www.w3.org/2000/svg">
<path fill-rule="evenodd" clip-rule="evenodd" d="M10 1C5.02944 1 1 5.02944 1 10C1 14.9706 5.02944 19 10 19C14.9706 19 19 14.9706 19 10C19 5.02944 14.9706 1 10 1ZM3 10C3 6.13401 6.13401 3 10 3C13.866 3 17 6.13401 17 10C17 13.866 13.866 17 10 17C6.13401 17 3 13.866 3 10ZM13.7071 8.2071C14.0976 7.81658 14.0976 7.18341 13.7071 6.79289C13.3166 6.40236 12.6834 6.40236 12.2929 6.79289L10 9.08579L8.20711 7.29289C7.81658 6.90236 7.18342 6.90236 6.79289 7.29289C6.40237 7.68341 6.40237 8.31658 6.79289 8.7071L9.29289 11.2071C9.48043 11.3946 9.73478 11.5 10 11.5C10.2652 11.5 10.5196 11.3946 10.7071 11.2071L13.7071 8.2071Z" fill="#2E2F38"/>
</svg>
