<svg width="30" height="30" viewBox="0 0 30 30" fill="none" xmlns="http://www.w3.org/2000/svg">
<path fill-rule="evenodd" clip-rule="evenodd" d="M26 10C26 10.5523 25.5523 11 25 11H5C4.44772 11 4.00001 10.5523 4.00001 10L4.00001 9C4.00001 8.44772 4.44772 8 5.00001 8H25C25.5523 8 26 8.44772 26 9V10ZM19 15.9999C19 16.5522 18.5522 17 17.9999 16.9999L5 16.9989C4.44775 16.9989 4.00008 16.5512 4.00008 15.9989V15C4.00008 14.4477 4.4478 14 5.00008 14H18C18.5523 14 19 14.4477 19 15V15.9999ZM11 23C11.5523 23 12 22.5523 12 22V21C12 20.4477 11.5523 20 11 20H5C4.44772 20 4 20.4477 4 21V22C4 22.5523 4.44772 23 5 23H11Z" fill="#2E2F38"/>
</svg>
