<svg width="30" height="30" viewBox="0 0 30 30" fill="none" xmlns="http://www.w3.org/2000/svg">
<path fill-rule="evenodd" clip-rule="evenodd" d="M21 8C21 6.89543 20.1046 6 19 6H11C9.89543 6 9 6.89543 9 8L9 10H8C6.34315 10 5 11.3431 5 13V18C5 19.6569 6.34315 21 8 21H9V22C9 23.1046 9.89543 24 11 24H19C20.1046 24 21 23.1046 21 22V21H22C23.6569 21 25 19.6569 25 18V13C25 11.3431 23.6569 10 22 10H21L21 8ZM19 10L19 8L11 8L11 10H19ZM10 12H8C7.44772 12 7 12.4477 7 13V18C7 18.5523 7.44772 19 8 19H9V18C9 16.8954 9.89543 16 11 16H19C20.1046 16 21 16.8954 21 18V19H22C22.5523 19 23 18.5523 23 18V13C23 12.4477 22.5523 12 22 12H20H10ZM19 22H11V20V18H19V20V22Z" fill="#393939"/>
</svg>
