<svg width="20" height="20" viewBox="0 0 20 20" fill="none" xmlns="http://www.w3.org/2000/svg">
<g clip-path="url(#clip0)">
<path d="M10 4C6.68629 4 4 6.68629 4 10V12.5858L4.29289 12.2929C4.68342 11.9024 5.31658 11.9024 5.70711 12.2929C6.09763 12.6834 6.09763 13.3166 5.70711 13.7071L3 16.4142L0.292893 13.7071C-0.0976311 13.3166 -0.0976311 12.6834 0.292893 12.2929C0.683417 11.9024 1.31658 11.9024 1.70711 12.2929L2 12.5858V10C2 5.58172 5.58172 2 10 2C11.0591 2 12.0724 2.20632 13.0002 2.58189C13.5121 2.78911 13.7592 3.37211 13.5519 3.88404C13.3447 4.39598 12.7617 4.64299 12.2498 4.43577C11.5563 4.15507 10.7975 4 10 4Z" fill="#2E2F38"/>
<path d="M18 7.41421L18.2929 7.70711C18.6834 8.09763 19.3166 8.09763 19.7071 7.70711C20.0976 7.31658 20.0976 6.68342 19.7071 6.29289L17 3.58579L14.2929 6.29289C13.9024 6.68342 13.9024 7.31658 14.2929 7.70711C14.6834 8.09763 15.3166 8.09763 15.7071 7.70711L16 7.41421V10C16 13.3137 13.3137 16 10 16C9.20249 16 8.44366 15.8449 7.75022 15.5642C7.23828 15.357 6.65529 15.604 6.44806 16.116C6.24084 16.6279 6.48785 17.2109 6.99979 17.4181C7.9276 17.7937 8.94094 18 10 18C14.4183 18 18 14.4183 18 10V7.41421Z" fill="#2E2F38"/>
</g>
<defs>
<clipPath id="clip0">
<rect width="20" height="20" fill="white"/>
</clipPath>
</defs>
</svg>
