<svg width="20" height="20" viewBox="0 0 20 20" fill="none" xmlns="http://www.w3.org/2000/svg">
<path fill-rule="evenodd" clip-rule="evenodd" d="M18 5C18 5.55228 17.5523 6 17 6H3C2.44772 6 2 5.55228 2 5C2 4.44772 2.44772 4 3 4H17C17.5523 4 18 4.44772 18 5ZM14 9.99997C14 10.5523 13.5522 11 12.9999 10.9999L2.99963 10.9993C2.44757 10.9992 2.00005 10.5517 2.00005 9.99964C2.00005 9.44755 2.44761 9 2.99969 9H13C13.5523 9 14 9.4477 14 9.99997ZM6.99999 16C7.55227 16 7.99999 15.5523 7.99999 15C7.99999 14.4477 7.55227 14 6.99999 14H3C2.44772 14 2 14.4477 2 15C2 15.5523 2.44772 16 3 16H6.99999Z" fill="#2E2F38"/>
</svg>
