<svg width="30" height="30" viewBox="0 0 30 30" fill="none" xmlns="http://www.w3.org/2000/svg">
<path fill-rule="evenodd" clip-rule="evenodd" d="M10.874 11C10.4299 12.7252 8.86384 14 7 14C4.79086 14 3 12.2091 3 10C3 7.79086 4.79086 6 7 6C8.86384 6 10.4299 7.27477 10.874 9H24C24.5523 9 25 9.44772 25 10C25 10.5523 24.5523 11 24 11H10.874ZM19.126 19C19.5701 17.2748 21.1362 16 23 16C25.2091 16 27 17.7909 27 20C27 22.2091 25.2091 24 23 24C21.1362 24 19.5701 22.7252 19.126 21H6C5.44772 21 5 20.5523 5 20C5 19.4477 5.44772 19 6 19H19.126ZM23 22C24.1046 22 25 21.1046 25 20C25 18.8954 24.1046 18 23 18C21.8954 18 21 18.8954 21 20C21 21.1046 21.8954 22 23 22ZM7 12C8.10457 12 9 11.1046 9 10C9 8.89543 8.10457 8 7 8C5.89543 8 5 8.89543 5 10C5 11.1046 5.89543 12 7 12Z" fill="#2E2F38"/>
</svg>
