<svg width="20" height="20" viewBox="0 0 20 20" fill="none" xmlns="http://www.w3.org/2000/svg">
<path fill-rule="evenodd" clip-rule="evenodd" d="M9.39683 3.57331C8.886 4.08415 7.99379 4.32363 7.29558 4.13624L6.51339 3.9267C6.49862 3.92281 6.26769 4.7295 6.26769 4.7295C6.08109 5.42733 5.42797 6.08084 4.72936 6.26784L3.94756 6.47777C3.9324 6.48166 4.13611 7.29573 4.13611 7.29573C4.32311 7.99357 4.08441 8.88578 3.57318 9.39701L3.00015 9.96927C2.98927 9.98054 3.5728 10.5835 3.5728 10.5835C4.08363 11.0944 4.32311 11.9866 4.13572 12.6848L3.92618 13.467C3.92229 13.4818 4.72897 13.7127 4.72897 13.7127C5.4268 13.8993 6.08031 14.5524 6.2673 15.251L6.47723 16.0328C6.48112 16.048 7.29519 15.8443 7.29519 15.8443C7.99301 15.6573 8.88522 15.896 9.39644 16.4072L9.9687 16.9799C9.97997 16.9907 10.5829 16.4072 10.5829 16.4072C11.0938 15.8964 11.986 15.6569 12.6842 15.8443L13.4664 16.0538C13.4812 16.0577 13.7121 15.251 13.7121 15.251C13.8987 14.5532 14.5518 13.8997 15.2504 13.7127L16.0322 13.5027C16.0474 13.4989 15.8437 12.6848 15.8437 12.6848C15.6567 11.987 15.8954 11.0947 16.4066 10.5835L16.9792 10.0113C16.9901 9.99998 16.4066 9.39701 16.4066 9.39701C15.8958 8.88617 15.6563 7.99395 15.8437 7.29573L16.0532 6.51354C16.0571 6.49876 15.2504 6.26784 15.2504 6.26784C14.5526 6.08123 13.8991 5.42811 13.7121 4.7295L13.5022 3.94769C13.4983 3.93253 12.6842 4.13624 12.6842 4.13624C11.9864 4.32324 11.0942 4.08454 10.5829 3.57331L10.0111 3.00027C9.9998 2.98939 9.39683 3.57331 9.39683 3.57331ZM11.1789 1.4881L11.7815 2.09028C11.9059 2.21505 12.2421 2.30505 12.4119 2.25924L13.235 2.03874C14.1246 1.80091 15.0386 2.32879 15.2772 3.21814L15.4977 4.04082C15.5431 4.211 15.7894 4.45687 15.9591 4.50228L16.7818 4.72319C17.671 4.96178 18.1988 5.87553 17.9612 6.76496L17.7403 7.58805C17.6953 7.75823 17.7853 8.09409 17.9097 8.21845L18.5119 8.82104C19.1625 9.47239 19.1625 10.5277 18.5119 11.179L17.9097 11.7816C17.7849 11.906 17.6949 12.2423 17.7407 12.412L17.9612 13.2351C18.199 14.1247 17.6712 15.0387 16.7818 15.2773L15.9591 15.4978C15.789 15.5432 15.5431 15.7895 15.4977 15.9593L15.2768 16.7819C15.0382 17.6711 14.1244 18.1989 13.235 17.9613L12.4119 17.7404C12.2417 17.6954 11.9059 17.7854 11.7815 17.9098L11.1789 18.512C10.5276 19.1626 9.47227 19.1626 8.82092 18.512L8.21833 17.9098C8.09397 17.785 7.7577 17.695 7.58792 17.7408L6.76483 17.9613C5.87527 18.1992 4.96124 17.6713 4.72265 16.7819L4.50216 15.9593C4.45675 15.7891 4.21047 15.5432 4.0407 15.4978L3.21802 15.2769C2.32887 15.0383 1.80105 14.1246 2.03861 13.2351L2.25952 12.412C2.30452 12.2419 2.21452 11.906 2.09016 11.7816L1.48798 11.179C0.837341 10.5277 0.837341 9.47239 1.48798 8.82104L2.09016 8.21845C2.21493 8.09409 2.30493 7.75782 2.25911 7.58805L2.03861 6.76496C1.80079 5.87539 2.32866 4.96136 3.21802 4.72278L4.0407 4.50228C4.21088 4.45687 4.45675 4.2106 4.50216 4.04082L4.72306 3.21814C4.96166 2.32899 5.87541 1.80117 6.76483 2.03874L7.58792 2.25964C7.7581 2.30464 8.09397 2.21464 8.21833 2.09028L8.82092 1.4881C9.47227 0.837463 10.5276 0.837463 11.1789 1.4881ZM12.2929 6.29302C12.6834 5.90249 13.3166 5.90249 13.7071 6.29302C14.0976 6.68354 14.0976 7.3167 13.7071 7.70723L7.70711 13.7072C7.31658 14.0978 6.68342 14.0978 6.29289 13.7072C5.90237 13.3167 5.90237 12.6835 6.29289 12.293L12.2929 6.29302ZM7.5 9.00012C6.67157 9.00012 6 8.32855 6 7.50012C6 6.67169 6.67157 6.00012 7.5 6.00012C8.32843 6.00012 9 6.67169 9 7.50012C9 8.32855 8.32843 9.00012 7.5 9.00012ZM12.5 14.0001C11.6716 14.0001 11 13.3285 11 12.5001C11 11.6717 11.6716 11.0001 12.5 11.0001C13.3284 11.0001 14 11.6717 14 12.5001C14 13.3285 13.3284 14.0001 12.5 14.0001Z" fill="#2E2F38"/>
</svg>
