<svg width="30" height="30" viewBox="0 0 30 30" fill="none" xmlns="http://www.w3.org/2000/svg">
<path fill-rule="evenodd" clip-rule="evenodd" d="M27.1271 15.4878C23.9389 9.78274 19.9194 7 15 7C10.223 7 6.29447 9.62405 3.15178 15C6.29447 20.3759 10.223 23 15 23C18.8077 23 22.0583 21.3398 24.8156 17.9591C25.1647 17.5311 25.7946 17.4671 26.2226 17.8162C26.6506 18.1653 26.7146 18.7952 26.3655 19.2232C23.2409 23.0542 19.4311 25 15 25C9.29202 25 4.64487 21.7827 1.1271 15.4878L0.854492 15L1.1271 14.5122C4.64487 8.21726 9.29202 5 15 5C20.7081 5 25.3552 8.21726 28.873 14.5122C29.1424 14.9943 28.97 15.6035 28.4879 15.8729C28.0058 16.1424 27.3965 15.9699 27.1271 15.4878ZM15 20C17.7615 20 20 17.7614 20 15C20 12.2386 17.7615 10 15 10C12.2386 10 10 12.2386 10 15C10 17.7614 12.2386 20 15 20ZM15 18C13.3432 18 12 16.6569 12 15C12 13.3431 13.3432 12 15 12C16.6569 12 18 13.3431 18 15C18 16.6569 16.6569 18 15 18Z" fill="#2E2F38"/>
</svg>
