<svg width="20" height="20" viewBox="0 0 20 20" fill="none" xmlns="http://www.w3.org/2000/svg">
<path fill-rule="evenodd" clip-rule="evenodd" d="M0 2C0 1.44772 0.447715 1 1 1H2.20177C3.13557 1 3.94509 1.64618 4.15204 2.55676L6.12132 11.2216C6.2248 11.6769 6.62956 12 7.09646 12H14.909C15.3746 12 15.7787 11.6786 15.8834 11.2249L17.0256 6.27514C17.1498 5.737 17.6867 5.40142 18.2249 5.52561C18.763 5.6498 19.0986 6.18672 18.9744 6.72486L17.8321 11.6746C17.518 13.0358 16.3059 14 14.909 14H7.09646C5.69576 14 4.48148 13.0307 4.17106 11.6649L2.20177 3H1C0.447715 3 0 2.55228 0 2ZM6.5 16C5.67157 16 5 16.6716 5 17.5C5 18.3284 5.67157 19 6.5 19C7.32843 19 8 18.3284 8 17.5C8 16.6716 7.32843 16 6.5 16ZM15.5 16C14.6716 16 14 16.6716 14 17.5C14 18.3284 14.6716 19 15.5 19C16.3284 19 17 18.3284 17 17.5C17 16.6716 16.3284 16 15.5 16ZM9.70711 4.29289C9.31658 3.90237 8.68342 3.90237 8.29289 4.29289C7.90237 4.68342 7.90237 5.31658 8.29289 5.70711L9.58579 7L8.29289 8.29289C7.90237 8.68342 7.90237 9.31658 8.29289 9.70711C8.68342 10.0976 9.31658 10.0976 9.70711 9.70711L11 8.41421L12.2929 9.70711C12.6834 10.0976 13.3166 10.0976 13.7071 9.70711C14.0976 9.31658 14.0976 8.68342 13.7071 8.29289L12.4142 7L13.7071 5.70711C14.0976 5.31658 14.0976 4.68342 13.7071 4.29289C13.3166 3.90237 12.6834 3.90237 12.2929 4.29289L11 5.58579L9.70711 4.29289Z" fill="#2E2F38"/>
</svg>
