<svg width="30" height="30" viewBox="0 0 30 30" fill="none" xmlns="http://www.w3.org/2000/svg">
<path fill-rule="evenodd" clip-rule="evenodd" d="M16.4142 15L18.7071 17.2929C19.0976 17.6834 19.0976 18.3166 18.7071 18.7071C18.3166 19.0976 17.6834 19.0976 17.2929 18.7071L15 16.4142L12.7071 18.7071C12.3166 19.0976 11.6834 19.0976 11.2929 18.7071C10.9024 18.3166 10.9024 17.6834 11.2929 17.2929L13.5858 15L11.2929 12.7071C10.9024 12.3166 10.9024 11.6834 11.2929 11.2929C11.6834 10.9024 12.3166 10.9024 12.7071 11.2929L15 13.5858L17.2929 11.2929C17.6834 10.9024 18.3166 10.9024 18.7071 11.2929C19.0976 11.6834 19.0976 12.3166 18.7071 12.7071L16.4142 15Z" fill="#2E2F38"/>
</svg>
