<svg width="20" height="20" viewBox="0 0 20 20" fill="none" xmlns="http://www.w3.org/2000/svg">
<path d="M12 4H8C7.44772 4 7 3.55228 7 3C7 2.44772 7.44772 2 8 2H12C12.5523 2 13 2.44772 13 3C13 3.55228 12.5523 4 12 4Z" fill="#2E2F38"/>
<path fill-rule="evenodd" clip-rule="evenodd" d="M3 5H17C17.5523 5 18 5.44772 18 6C18 6.55228 17.5523 7 17 7H15.9132L15.1613 15.2716C15.0208 16.8168 13.7252 18 12.1736 18H7.82643C6.27482 18 4.97923 16.8168 4.83875 15.2716L4.08679 7H3C2.44772 7 2 6.55228 2 6C2 5.44772 2.44772 5 3 5ZM6.83054 15.0905L6.09503 7H13.905L13.1695 15.0905C13.1226 15.6056 12.6908 16 12.1736 16H7.82643C7.30923 16 6.87736 15.6056 6.83054 15.0905Z" fill="#2E2F38"/>
</svg>
