<svg width="20" height="20" viewBox="0 0 20 20" fill="none" xmlns="http://www.w3.org/2000/svg">
<path fill-rule="evenodd" clip-rule="evenodd" d="M16 3C16.5523 3 17 3.44772 17 4V11.9875C17 12.5394 16.5529 12.987 16.001 12.9875L4.00096 12.999C3.4483 12.9996 3 12.5517 3 11.999V4C3 3.44772 3.44772 3 4 3H16ZM17 15.9988C17 16.5503 16.553 16.9974 16.0014 16.9975L4.0001 16.9998C3.44779 16.9999 3 16.5522 3 15.9999C3 15.4477 3.44767 15 3.9999 15H16.0012C16.5528 15 17 15.4472 17 15.9988Z" fill="#2E2F38"/>
</svg>
