<svg width="30" height="30" viewBox="0 0 30 30" fill="none" xmlns="http://www.w3.org/2000/svg">
<path fill-rule="evenodd" clip-rule="evenodd" d="M2 5C1.44772 5 1 4.55228 1 4C1 3.44772 1.44772 3 2 3H4.36063C5.79051 3 7.02167 4.00916 7.30229 5.41123L9.66084 17.1952C9.75521 17.6703 10.1765 18.0095 10.68 18L21.4192 18.0002C21.9035 18.0095 22.3248 17.6703 22.4299 17.1471L24.0299 10.7571C24.1641 10.2214 24.7071 9.8958 25.2429 10.0299C25.7786 10.1641 26.1042 10.7071 25.9701 11.2429L24.3808 17.5848C24.0977 19.0102 22.8338 20.0277 21.4 20L10.6992 19.9998C9.24624 20.0277 7.98227 19.0102 7.69945 17.5863L5.34118 5.80374C5.24764 5.33639 4.83726 5 4.36063 5H2ZM21 27C19.8954 27 19 26.1046 19 25C19 23.8954 19.8954 23 21 23C22.1046 23 23 23.8954 23 25C23 26.1046 22.1046 27 21 27ZM10 27C8.89543 27 8 26.1046 8 25C8 23.8954 8.89543 23 10 23C11.1046 23 12 23.8954 12 25C12 26.1046 11.1046 27 10 27Z" fill="#2E2F38"/>
<path fill-rule="evenodd" clip-rule="evenodd" d="M17.4142 11L19.7071 13.2929C20.0976 13.6834 20.0976 14.3166 19.7071 14.7071C19.3166 15.0976 18.6834 15.0976 18.2929 14.7071L16 12.4142L13.7071 14.7071C13.3166 15.0976 12.6834 15.0976 12.2929 14.7071C11.9024 14.3166 11.9024 13.6834 12.2929 13.2929L14.5858 11L12.2929 8.70711C11.9024 8.31658 11.9024 7.68342 12.2929 7.29289C12.6834 6.90237 13.3166 6.90237 13.7071 7.29289L16 9.58579L18.2929 7.29289C18.6834 6.90237 19.3166 6.90237 19.7071 7.29289C20.0976 7.68342 20.0976 8.31658 19.7071 8.70711L17.4142 11Z" fill="#2E2F38"/>
</svg>
