<svg width="20" height="20" viewBox="0 0 20 20" fill="none" xmlns="http://www.w3.org/2000/svg">
<path fill-rule="evenodd" clip-rule="evenodd" d="M10.7071 16.7071C11.0976 16.3166 11.0976 15.6834 10.7071 15.2929L5.41421 10L10.7071 4.70711C11.0976 4.31658 11.0976 3.68342 10.7071 3.29289C10.3166 2.90237 9.68342 2.90237 9.29289 3.29289L3.29289 9.29289C2.90237 9.68342 2.90237 10.3166 3.29289 10.7071L9.29289 16.7071C9.68342 17.0976 10.3166 17.0976 10.7071 16.7071ZM16.7071 16.7071C17.0976 16.3166 17.0976 15.6834 16.7071 15.2929L11.4142 10L16.7071 4.70711C17.0976 4.31658 17.0976 3.68342 16.7071 3.29289C16.3166 2.90237 15.6834 2.90237 15.2929 3.29289L9.29289 9.29289C8.90237 9.68342 8.90237 10.3166 9.29289 10.7071L15.2929 16.7071C15.6834 17.0976 16.3166 17.0976 16.7071 16.7071Z" fill="#2E2F38"/>
</svg>
