<svg width="40" height="40" viewBox="0 0 40 40" fill="none" xmlns="http://www.w3.org/2000/svg">
<path fill-rule="evenodd" clip-rule="evenodd" d="M20 16.5858V13C20 12.4477 20.4477 12 21 12C21.5523 12 22 12.4477 22 13V16.5858L23.2929 15.2929C23.6834 14.9024 24.3166 14.9024 24.7071 15.2929C25.0976 15.6834 25.0976 16.3166 24.7071 16.7071L21.7071 19.7071C21.5118 19.9024 21.2559 20 21 20C20.7441 20 20.4882 19.9024 20.2929 19.7071L17.2929 16.7071C16.9024 16.3166 16.9024 15.6834 17.2929 15.2929C17.6834 14.9024 18.3166 14.9024 18.7071 15.2929L20 16.5858ZM7 10C6.44772 10 6 9.55228 6 9C6 8.44772 6.44772 8 7 8H9.36063C10.7905 8 12.0217 9.00916 12.3023 10.4112L14.6608 22.1952C14.7552 22.6703 15.1765 23.0095 15.68 23L26.4192 23.0002C26.9035 23.0095 27.3248 22.6703 27.4299 22.1471L29.0299 15.7571C29.1641 15.2214 29.7071 14.8958 30.2429 15.0299C30.7786 15.1641 31.1042 15.7071 30.9701 16.2429L29.3808 22.5848C29.0977 24.0102 27.8338 25.0277 26.4 25L15.6992 24.9998C14.2462 25.0277 12.9823 24.0102 12.6994 22.5863L10.3412 10.8037C10.2476 10.3364 9.83726 10 9.36063 10H7ZM26 32C24.8954 32 24 31.1046 24 30C24 28.8954 24.8954 28 26 28C27.1046 28 28 28.8954 28 30C28 31.1046 27.1046 32 26 32ZM15 32C13.8954 32 13 31.1046 13 30C13 28.8954 13.8954 28 15 28C16.1046 28 17 28.8954 17 30C17 31.1046 16.1046 32 15 32Z" fill="#2E2F38"/>
</svg>
