<svg width="20" height="20" viewBox="0 0 20 20" fill="none" xmlns="http://www.w3.org/2000/svg">
<path fill-rule="evenodd" clip-rule="evenodd" d="M8 2C4.68629 2 2 4.68629 2 8C2 10.7075 3.79338 12.9962 6.25707 13.7429C7.0038 16.2066 9.29247 18 12 18C15.3137 18 18 15.3137 18 12C18 9.29246 16.2066 7.00379 13.7429 6.25706C12.9962 3.79338 10.7075 2 8 2ZM13.9776 8.52225C13.7278 11.4193 11.4193 13.7278 8.52226 13.9776C9.21063 15.1855 10.5102 16 12 16C14.2091 16 16 14.2091 16 12C16 10.5102 15.1855 9.21063 13.9776 8.52225ZM4 8C4 5.79086 5.79086 4 8 4C10.2091 4 12 5.79086 12 8C12 10.2091 10.2091 12 8 12C5.79086 12 4 10.2091 4 8Z" fill="#2E2F38"/>
</svg>
