<svg width="20" height="20" viewBox="0 0 20 20" fill="none" xmlns="http://www.w3.org/2000/svg">
<path fill-rule="evenodd" clip-rule="evenodd" d="M1 12V4C1 2.34315 2.34315 1 4 1H11C12.6569 1 14 2.34315 14 4V6H16C17.6569 6 19 7.34315 19 9V13C19 14.1046 18.1046 15 17 15H14V13H16H17V9C17 8.44772 16.5523 8 16 8H14V15H11H4C2.34315 15 1 13.6569 1 12ZM12 4C12 3.44772 11.5523 3 11 3H4C3.44772 3 3 3.44772 3 4V12C3 12.5523 3.44772 13 4 13H11C11.5523 13 12 12.5523 12 12V4Z" fill="#2E2F38"/>
<path d="M15.5 19C16.3284 19 17 18.3284 17 17.5C17 16.6716 16.3284 16 15.5 16C14.6716 16 14 16.6716 14 17.5C14 18.3284 14.6716 19 15.5 19Z" fill="#2E2F38"/>
<path d="M7 17.5C7 18.3284 6.32843 19 5.5 19C4.67157 19 4 18.3284 4 17.5C4 16.6716 4.67157 16 5.5 16C6.32843 16 7 16.6716 7 17.5Z" fill="#2E2F38"/>
</svg>
