<svg width="30" height="30" viewBox="0 0 30 30" fill="none" xmlns="http://www.w3.org/2000/svg">
<path d="M17 9H13C12.4477 9 12 8.55228 12 8C12 7.44772 12.4477 7 13 7H17C17.5523 7 18 7.44772 18 8C18 8.55228 17.5523 9 17 9Z" fill="#2E2F38"/>
<path fill-rule="evenodd" clip-rule="evenodd" d="M8 10H22C22.5523 10 23 10.4477 23 11C23 11.5523 22.5523 12 22 12H20.9132L20.1613 20.2716C20.0208 21.8168 18.7252 23 17.1736 23H12.8264C11.2748 23 9.97923 21.8168 9.83875 20.2716L9.08679 12H8C7.44772 12 7 11.5523 7 11C7 10.4477 7.44772 10 8 10ZM11.8305 20.0905L11.095 12H18.905L18.1695 20.0905C18.1226 20.6056 17.6908 21 17.1736 21H12.8264C12.3092 21 11.8774 20.6056 11.8305 20.0905Z" fill="#2E2F38"/>
</svg>
