<svg width="30" height="30" viewBox="0 0 30 30" fill="none" xmlns="http://www.w3.org/2000/svg">
<path fill-rule="evenodd" clip-rule="evenodd" d="M24 24C24 24.5523 23.5523 25 23 25C22.4477 25 22 24.5523 22 24V22C22 20.3431 20.6569 19 19 19H11C9.34315 19 8 20.3431 8 22V24C8 24.5523 7.55228 25 7 25C6.44772 25 6 24.5523 6 24V22C6 19.2386 8.23858 17 11 17H19C21.7614 17 24 19.2386 24 22V24ZM15 15C12.2386 15 10 12.7614 10 10C10 7.23858 12.2386 5 15 5C17.7614 5 20 7.23858 20 10C20 12.7614 17.7614 15 15 15ZM15 13C16.6569 13 18 11.6569 18 10C18 8.34315 16.6569 7 15 7C13.3431 7 12 8.34315 12 10C12 11.6569 13.3431 13 15 13Z" fill="#2E2F38"/>
</svg>
