<svg width="30" height="30" viewBox="0 0 30 30" fill="none" xmlns="http://www.w3.org/2000/svg">
<path fill-rule="evenodd" clip-rule="evenodd" d="M6 5.90909C6 5.40701 6.44772 5 7 5C7.55228 5 8 5.40701 8 5.90909L8 24.0909C8 24.593 7.55229 25 7 25C6.44772 25 6 24.593 6 24.0909L6 5.90909ZM14 10.9091C14 10.407 14.4477 10 15 10C15.5523 10 16 10.407 16 10.9091V24.0909C16 24.593 15.5523 25 15 25C14.4477 25 14 24.593 14 24.0909L14 10.9091ZM22 16.9091C22 16.407 22.4477 16 23 16C23.5523 16 24 16.407 24 16.9091V24.0909C24 24.593 23.5523 25 23 25C22.4477 25 22 24.593 22 24.0909L22 16.9091Z" fill="#2E2F38"/>
</svg>
