<svg width="30" height="30" viewBox="0 0 30 30" fill="none" xmlns="http://www.w3.org/2000/svg">
<path fill-rule="evenodd" clip-rule="evenodd" d="M8 8C8 8.72857 8.19479 9.41165 8.53513 10H5C3.89543 10 3 10.8954 3 12V15C3 16.1046 3.89543 17 5 17L5 23C5 24.6569 6.34315 26 8 26H22C23.6569 26 25 24.6569 25 23V17C26.1046 17 27 16.1046 27 15V12C27 10.8954 26.1046 10 25 10H21.4649C21.8052 9.41165 22 8.72857 22 8C22 5.79086 20.2091 4 18 4C16.8053 4 15.7329 4.52376 15 5.35418C14.2671 4.52376 13.1947 4 12 4C9.79086 4 8 5.79086 8 8ZM5 12V15H25V12H5ZM14 10V8C14 6.89543 13.1046 6 12 6C10.8954 6 10 6.89543 10 8C10 9.10457 10.8954 10 12 10H14ZM18 10C19.1046 10 20 9.10457 20 8C20 6.89543 19.1046 6 18 6C16.8954 6 16 6.89543 16 8V10H18ZM16 24H22C22.5523 24 23 23.5523 23 23V17H16V24ZM14 17V24H8C7.44772 24 7 23.5523 7 23V17H14Z" fill="#2E2F38"/>
</svg>
