<svg width="20" height="20" viewBox="0 0 20 20" fill="none" xmlns="http://www.w3.org/2000/svg">
<path d="M1 1C0.447715 1 0 1.44772 0 2C0 2.55228 0.447715 3 1 3H2.20177L4.17106 11.6649C4.48148 13.0307 5.69576 14 7.09646 14H14.909C16.3059 14 17.518 13.0358 17.8321 11.6746L18.9744 6.72486C19.0373 6.45207 18.9831 6.16538 18.8247 5.93449C18.6664 5.7036 18.4186 5.54964 18.1414 5.51005L7.64142 4.01005C7.09469 3.93195 6.58816 4.31184 6.51005 4.85858C6.43195 5.40531 6.81184 5.91184 7.35858 5.98995L16.7808 7.33598L15.8834 11.2249C15.7787 11.6786 15.3746 12 14.909 12H7.09646C6.62956 12 6.2248 11.6769 6.12132 11.2216L4.15204 2.55676C3.94509 1.64618 3.13557 1 2.20177 1H1Z" fill="#2E2F38"/>
<path d="M5 17.5C5 16.6716 5.67157 16 6.5 16C7.32843 16 8 16.6716 8 17.5C8 18.3284 7.32843 19 6.5 19C5.67157 19 5 18.3284 5 17.5Z" fill="#2E2F38"/>
<path d="M14 17.5C14 16.6716 14.6716 16 15.5 16C16.3284 16 17 16.6716 17 17.5C17 18.3284 16.3284 19 15.5 19C14.6716 19 14 18.3284 14 17.5Z" fill="#2E2F38"/>
</svg>
