<svg width="30" height="30" viewBox="0 0 30 30" fill="none" xmlns="http://www.w3.org/2000/svg">
<path d="M11 17H19C19.5523 17 20 16.5523 20 16C20 15.4477 19.5523 15 19 15H11C10.4477 15 10 15.4477 10 16C10 16.5523 10.4477 17 11 17Z" fill="#2E2F38"/>
<path d="M17 21H11C10.4477 21 10 20.5523 10 20C10 19.4477 10.4477 19 11 19H17C17.5523 19 18 19.4477 18 20C18 20.5523 17.5523 21 17 21Z" fill="#2E2F38"/>
<path fill-rule="evenodd" clip-rule="evenodd" d="M9 3H19.4142L25 8.58579V23C25 25.2091 23.2091 27 21 27H9C6.79086 27 5 25.2091 5 23V7C5 4.79086 6.79086 3 9 3ZM9 5C7.89543 5 7 5.89543 7 7V23C7 24.1046 7.89543 25 9 25H21C22.1046 25 23 24.1046 23 23V11H20C18.3431 11 17 9.65685 17 8V5H9ZM19 5.41421V8C19 8.55229 19.4477 9 20 9H22.5858L19 5.41421Z" fill="#2E2F38"/>
</svg>
