<svg width="30" height="30" viewBox="0 0 30 30" fill="none" xmlns="http://www.w3.org/2000/svg">
<path d="M8.29173 17.2953L7.00576 18.5856V15.3139C6.9057 12.5405 8.26521 9.94153 10.6131 8.39318C12.9713 6.83811 15.9933 6.56304 18.6117 7.66639C19.1206 7.88085 19.7071 7.64212 19.9215 7.13317C20.136 6.62422 19.8973 6.03779 19.3883 5.82333C16.1552 4.46098 12.4287 4.80017 9.51209 6.72354C6.58529 8.65363 4.88151 11.9108 5.00642 15.3502L5.00604 18.5861L2.70602 16.2931C2.31489 15.9032 1.68173 15.9041 1.29181 16.2953C0.901883 16.6864 0.902857 17.3196 1.29398 17.7095L5.24088 21.6443C5.42432 21.8618 5.6989 22 6.00576 22L6.00859 22C6.26589 22.0007 6.52336 21.9026 6.71935 21.706L9.70827 18.7072C10.0982 18.3161 10.0971 17.6829 9.70595 17.293C9.31478 16.9031 8.68162 16.9042 8.29173 17.2953Z" fill="#2E2F38"/>
<path d="M20.2934 12.7064C20.6842 13.0967 21.3174 13.0962 21.7076 12.7054L22.9942 11.4169V14.6861C23.0943 17.4596 21.7348 20.0586 19.3869 21.6069C17.0287 23.162 14.0067 23.4371 11.3883 22.3337C10.8794 22.1192 10.2929 22.358 10.0785 22.8669C9.86401 23.3759 10.1027 23.9623 10.6117 24.1768C13.8448 25.5391 17.5713 25.1999 20.4879 23.2766C23.4147 21.3465 25.1185 18.0893 24.9936 14.6499L24.994 11.4108L27.2935 13.7065C27.6843 14.0967 28.3175 14.0962 28.7077 13.7053C29.0979 13.3145 29.0974 12.6813 28.7065 12.2911L24.701 8.29235C24.5783 8.16983 24.4317 8.08583 24.2762 8.04034C24.1952 8.01665 24.1118 8.0034 24.0281 8.00061C24.019 8.0003 24.0099 8.00012 24.0008 8.00007C23.9986 8.00005 23.9964 8.00005 23.9942 8.00005C23.7109 8.00005 23.4551 8.11789 23.2731 8.30723L20.2924 11.2922C19.9021 11.683 19.9026 12.3162 20.2934 12.7064Z" fill="#2E2F38"/>
</svg>
