<svg width="30" height="30" viewBox="0 0 30 30" fill="none" xmlns="http://www.w3.org/2000/svg">
<path fill-rule="evenodd" clip-rule="evenodd" d="M21.0319 19.6177L24.7071 23.2929C25.0976 23.6834 25.0976 24.3166 24.7071 24.7071C24.3166 25.0976 23.6834 25.0976 23.2929 24.7071L19.6177 21.0319C18.078 22.2635 16.125 23 14 23C9.02944 23 5 18.9706 5 14C5 9.02944 9.02944 5 14 5C18.9706 5 23 9.02944 23 14C23 16.125 22.2635 18.078 21.0319 19.6177ZM19.0414 18.8564C20.2542 17.5977 21 15.8859 21 14C21 10.134 17.866 7 14 7C10.134 7 7 10.134 7 14C7 17.866 10.134 21 14 21C15.8859 21 17.5977 20.2542 18.8564 19.0414C18.8827 19.0072 18.9115 18.9742 18.9429 18.9429C18.9742 18.9115 19.0072 18.8827 19.0414 18.8564Z" fill="#2E2F38"/>
</svg>
