<svg width="20" height="20" viewBox="0 0 20 20" fill="none" xmlns="http://www.w3.org/2000/svg">
<path fill-rule="evenodd" clip-rule="evenodd" d="M10 18.4C5.36081 18.4 1.6 14.6392 1.6 10C1.6 5.36081 5.36081 1.6 10 1.6C14.6392 1.6 18.4 5.36081 18.4 10C18.4 14.6392 14.6392 18.4 10 18.4ZM0 10C0 4.47715 4.47715 0 10 0C15.5228 0 20 4.47715 20 10C20 15.5228 15.5228 20 10 20C4.47715 20 0 15.5228 0 10ZM10.0587 6.52793L10.0012 6.52793C9.17215 6.52793 8.5001 7.19999 8.5001 8.02901V8.08736C8.5001 8.47396 8.1867 8.78736 7.8001 8.78736C7.4135 8.78736 7.1001 8.47396 7.1001 8.08736V8.02901C7.1001 6.42679 8.39894 5.12794 10.0012 5.12793H10.0587C11.6291 5.12792 12.9022 6.40101 12.9022 7.97146C12.9022 9.04851 12.2937 10.0331 11.3304 10.5148L11.0146 10.6727C10.6999 10.83 10.5011 11.1517 10.5011 11.5035V11.8308C10.5011 12.2174 10.1877 12.5308 9.80106 12.5308C9.41446 12.5308 9.10106 12.2174 9.10106 11.8308V11.5035C9.10106 10.6214 9.59945 9.815 10.3885 9.4205L10.7043 9.26259C11.1933 9.01807 11.5022 8.51823 11.5022 7.97146C11.5022 7.17422 10.856 6.52793 10.0587 6.52793ZM9.80011 15.3001C10.2972 15.3001 10.7001 14.8972 10.7001 14.4001C10.7001 13.9031 10.2972 13.5001 9.80011 13.5001C9.30306 13.5001 8.90011 13.9031 8.90011 14.4001C8.90011 14.8972 9.30306 15.3001 9.80011 15.3001Z" fill="#2E2F38"/>
</svg>
