<svg width="20" height="20" viewBox="0 0 20 20" fill="none" xmlns="http://www.w3.org/2000/svg">
<path fill-rule="evenodd" clip-rule="evenodd" d="M18 15C18 14.4477 17.5523 14 17 14H3C2.44772 14 2 14.4477 2 15C2 15.5523 2.44772 16 3 16H17C17.5523 16 18 15.5523 18 15ZM14 10C14 9.44774 13.5522 9.00003 12.9999 9.00007L2.99963 9.00072C2.44757 9.00076 2.00005 9.4483 2.00005 10.0004C2.00005 10.5524 2.44761 11 2.99969 11H13C13.5523 11 14 10.5523 14 10ZM6.99999 4C7.55227 4 7.99999 4.44771 7.99999 5C7.99999 5.55228 7.55227 6 6.99999 6H3C2.44772 6 2 5.55228 2 5C2 4.44771 2.44772 4 3 4H6.99999Z" fill="#2E2F38"/>
</svg>
