<svg width="30" height="30" viewBox="0 0 30 30" fill="none" xmlns="http://www.w3.org/2000/svg">
<path fill-rule="evenodd" clip-rule="evenodd" d="M6 5.90909C6 5.40701 6.44771 5 7 5C7.55228 5 8 5.40701 8 5.90909L8 24.0909C8 24.593 7.55228 25 7 25C6.44772 25 6 24.593 6 24.0909L6 5.90909ZM14 9.90909C14 9.40701 14.4477 9 15 9C15.5523 9 16 9.40701 16 9.90909L16 24.0909C16 24.593 15.5523 25 15 25C14.4477 25 14 24.593 14 24.0909L14 9.90909ZM22 15.9091C22 15.407 22.4477 15 23 15C23.5523 15 24 15.407 24 15.9091L24 24.0909C24 24.593 23.5523 25 23 25C22.4477 25 22 24.593 22 24.0909L22 15.9091Z" fill="#2E2F38"/>
</svg>
