<svg width="20" height="20" viewBox="0 0 20 20" fill="none" xmlns="http://www.w3.org/2000/svg">
<path fill-rule="evenodd" clip-rule="evenodd" d="M5 9C2.79086 9 1 7.20914 1 5C1 2.79086 2.79086 1 5 1C6.86384 1 8.42994 2.27477 8.87398 4H16C16.5523 4 17 4.44772 17 5C17 5.55228 16.5523 6 16 6H8.87398C8.42994 7.72523 6.86384 9 5 9ZM15 11C17.2091 11 19 12.7909 19 15C19 17.2091 17.2091 19 15 19C13.1362 19 11.5701 17.7252 11.126 16H4C3.44772 16 3 15.5523 3 15C3 14.4477 3.44772 14 4 14H11.126C11.5701 12.2748 13.1362 11 15 11ZM15 17C16.1046 17 17 16.1046 17 15C17 13.8954 16.1046 13 15 13C13.8954 13 13 13.8954 13 15C13 16.1046 13.8954 17 15 17ZM5 7C6.10457 7 7 6.10457 7 5C7 3.89543 6.10457 3 5 3C3.89543 3 3 3.89543 3 5C3 6.10457 3.89543 7 5 7Z" fill="#2E2F38"/>
</svg>
