<svg width="30" height="30" viewBox="0 0 30 30" fill="none" xmlns="http://www.w3.org/2000/svg">
<path d="M20.698 9.38436C21.0854 9.77799 21.0803 10.4111 20.6867 10.7985L16.9347 14.4911C16.9773 14.6536 17 14.8241 17 15C17 16.1046 16.1046 17 15 17C13.8954 17 13 16.1046 13 15C13 14.8208 13.0236 14.6472 13.0677 14.4819L10.2929 11.7071C9.90237 11.3166 9.90237 10.6834 10.2929 10.2929C10.6834 9.90237 11.3166 9.90237 11.7071 10.2929L14.482 13.0677C14.6472 13.0236 14.8208 13 15 13C15.1825 13 15.3592 13.0244 15.5271 13.0702L19.2838 9.37306C19.6775 8.98567 20.3106 8.99073 20.698 9.38436Z" fill="#2E2F38"/>
<path fill-rule="evenodd" clip-rule="evenodd" d="M3 15C3 8.37258 8.37258 3 15 3C21.6274 3 27 8.37258 27 15C27 21.6274 21.6274 27 15 27C8.37258 27 3 21.6274 3 15ZM15 5C9.47715 5 5 9.47715 5 15C5 20.5228 9.47715 25 15 25C20.5228 25 25 20.5228 25 15C25 9.47715 20.5228 5 15 5Z" fill="#2E2F38"/>
</svg>
