<svg width="30" height="30" viewBox="0 0 30 30" fill="none" xmlns="http://www.w3.org/2000/svg">
<path fill-rule="evenodd" clip-rule="evenodd" d="M3 15C3 8.37258 8.37258 3 15 3C21.6274 3 27 8.37258 27 15C27 21.6274 21.6274 27 15 27C8.37258 27 3 21.6274 3 15ZM15 5C9.47715 5 5 9.47715 5 15C5 20.5228 9.47715 25 15 25C20.5228 25 25 20.5228 25 15C25 9.47715 20.5228 5 15 5ZM20.364 11.636C20.7545 12.0266 20.7545 12.6597 20.364 13.0502L14.7071 18.7071C14.5196 18.8946 14.2652 19 14 19C13.7348 19 13.4804 18.8946 13.2929 18.7071L10.4645 15.8787C10.0739 15.4882 10.0739 14.855 10.4645 14.4645C10.855 14.0739 11.4882 14.0739 11.8787 14.4645L14 16.5858L18.9497 11.636C19.3403 11.2455 19.9734 11.2455 20.364 11.636Z" fill="#EFEFEF"/>
</svg>
