<svg width="20" height="20" viewBox="0 0 20 20" fill="none" xmlns="http://www.w3.org/2000/svg">
<path fill-rule="evenodd" clip-rule="evenodd" d="M3 2.90909C3 2.40701 3.44772 2 4 2C4.55228 2 5 2.40701 5 2.90909L5 17.0909C5 17.593 4.55229 18 4 18C3.44772 18 3 17.593 3 17.0909L3 2.90909ZM9 6.90909C9 6.40701 9.44772 6 10 6C10.5523 6 11 6.40701 11 6.90909V17.0909C11 17.593 10.5523 18 10 18C9.44772 18 9 17.593 9 17.0909L9 6.90909ZM15 10.9091C15 10.407 15.4477 10 16 10C16.5523 10 17 10.407 17 10.9091V17.0909C17 17.593 16.5523 18 16 18C15.4477 18 15 17.593 15 17.0909L15 10.9091Z" fill="#2E2F38"/>
</svg>
