<svg width="30" height="30" viewBox="0 0 30 30" fill="none" xmlns="http://www.w3.org/2000/svg">
<path fill-rule="evenodd" clip-rule="evenodd" d="M25 16C25.5523 16 26 16.4477 26 17V20.9923C26 21.5445 25.5525 21.9921 25.0004 21.9923L5.00037 21.9996C4.44794 21.9998 4 21.5521 4 20.9996V17C4 16.4477 4.44772 16 5 16H25ZM26 12.9923C26 13.5445 25.5525 13.9921 25.0004 13.9923L5.00037 13.9996C4.44794 13.9998 4 13.5521 4 12.9996V9C4 8.44772 4.44772 8 5 8H25C25.5523 8 26 8.44772 26 9V12.9923Z" fill="#2E2F38"/>
</svg>
