<svg width="20" height="20" viewBox="0 0 20 20" fill="none" xmlns="http://www.w3.org/2000/svg">
<path fill-rule="evenodd" clip-rule="evenodd" d="M4 2C3.44772 2 3 2.40701 3 2.90909V17.0909C3 17.593 3.44772 18 4 18C4.55229 18 5 17.593 5 17.0909L5 2.90909C5 2.40701 4.55228 2 4 2ZM10 6C9.44772 6 9 6.40701 9 6.90909L9 17.0909C9 17.593 9.44772 18 10 18C10.5523 18 11 17.593 11 17.0909V6.90909C11 6.40701 10.5523 6 10 6ZM16 11C15.4477 11 15 11.407 15 11.9091L15 17.0909C15 17.593 15.4477 18 16 18C16.5523 18 17 17.593 17 17.0909V11.9091C17 11.407 16.5523 11 16 11ZM18 4H17V3C17 2.44772 16.5523 2 16 2C15.4477 2 15 2.44772 15 3V4H14C13.4477 4 13 4.44772 13 5C13 5.55228 13.4477 6 14 6H15V7C15 7.55229 15.4477 8 16 8C16.5523 8 17 7.55229 17 7V6H18C18.5523 6 19 5.55228 19 5C19 4.44772 18.5523 4 18 4Z" fill="#2E2F38"/>
</svg>
