<svg width="20" height="20" viewBox="0 0 20 20" fill="none" xmlns="http://www.w3.org/2000/svg">
<path fill-rule="evenodd" clip-rule="evenodd" d="M2.4955 3.6078C4.52013 1.46407 7.82769 1.46407 9.85233 3.6078L10 3.76416L10.1477 3.6078C12.1723 1.46407 15.4799 1.46407 17.5045 3.6078C19.4985 5.71909 19.4985 9.11978 17.5045 11.2311L17.4886 11.2475L10.7111 18.103C10.5233 18.2931 10.2672 18.4 10 18.4C9.7328 18.4 9.47671 18.2931 9.28886 18.103L2.51137 11.2475L2.4955 11.2311C0.501501 9.11978 0.501501 5.71909 2.4955 3.6078ZM8.3983 4.98105C7.16291 3.67298 5.18492 3.67298 3.94952 4.98105C2.68594 6.31896 2.6835 8.50884 3.9422 9.85005L10 15.9776L16.0578 9.85005C17.3165 8.50885 17.3141 6.31896 16.0505 4.98105C14.8151 3.67298 12.8371 3.67298 11.6017 4.98105L10.727 5.90718C10.5381 6.10721 10.2751 6.22056 10 6.22056C9.72487 6.22056 9.4619 6.10721 9.27299 5.90718L8.3983 4.98105Z" fill="#2E2F38"/>
</svg>
