<svg width="20" height="20" viewBox="0 0 20 20" fill="none" xmlns="http://www.w3.org/2000/svg">
<path fill-rule="evenodd" clip-rule="evenodd" d="M16 11C16.5523 11 17 11.4477 17 12V15.9925C17 16.5446 16.5526 16.9922 16.0006 16.9925L4.00058 16.9994C3.44807 16.9997 3 16.5519 3 15.9994V12C3 11.4477 3.44772 11 4 11H16ZM17 7.99252C17 8.54458 16.5526 8.9922 16.0006 8.99252L4.00058 8.99942C3.44807 8.99974 3 8.55193 3 7.99942V4C3 3.44772 3.44772 3 4 3H16C16.5523 3 17 3.44772 17 4V7.99252Z" fill="#2E2F38"/>
</svg>
