<svg width="20" height="20" viewBox="0 0 20 20" fill="none" xmlns="http://www.w3.org/2000/svg">
<path fill-rule="evenodd" clip-rule="evenodd" d="M16 3C16 1.89543 15.1046 1 14 1H6C4.89543 1 4 1.89543 4 3L4 5H3C1.34315 5 0 6.34315 0 8V13C0 14.6569 1.34315 16 3 16H4V17C4 18.1046 4.89543 19 6 19H14C15.1046 19 16 18.1046 16 17V16H17C18.6569 16 20 14.6569 20 13V8C20 6.34315 18.6569 5 17 5H16L16 3ZM14 5L14 3L6 3L6 5H14ZM5 7H3C2.44772 7 2 7.44772 2 8V13C2 13.5523 2.44772 14 3 14H4V13C4 11.8954 4.89543 11 6 11H14C15.1046 11 16 11.8954 16 13V14H17C17.5523 14 18 13.5523 18 13V8C18 7.44772 17.5523 7 17 7H15H5ZM14 17H6V15V13H14V15V17Z" fill="#393939"/>
</svg>
