<svg width="30" height="30" viewBox="0 0 30 30" fill="none" xmlns="http://www.w3.org/2000/svg">
<path fill-rule="evenodd" clip-rule="evenodd" d="M13.5858 15L8.29289 20.2929C7.90237 20.6834 7.90237 21.3166 8.29289 21.7071C8.68342 22.0976 9.31658 22.0976 9.70711 21.7071L15.7071 15.7071C16.0976 15.3166 16.0976 14.6834 15.7071 14.2929L9.70711 8.29289C9.31658 7.90237 8.68342 7.90237 8.29289 8.29289C7.90237 8.68342 7.90237 9.31658 8.29289 9.70711L13.5858 15ZM19.5858 15L14.2929 20.2929C13.9024 20.6834 13.9024 21.3166 14.2929 21.7071C14.6834 22.0976 15.3166 22.0976 15.7071 21.7071L21.7071 15.7071C22.0976 15.3166 22.0976 14.6834 21.7071 14.2929L15.7071 8.29289C15.3166 7.90237 14.6834 7.90237 14.2929 8.29289C13.9024 8.68342 13.9024 9.31658 14.2929 9.70711L19.5858 15Z" fill="#2E2F38"/>
</svg>
