<svg width="30" height="30" viewBox="0 0 30 30" fill="none" xmlns="http://www.w3.org/2000/svg">
<path fill-rule="evenodd" clip-rule="evenodd" d="M5 8C4.44772 8 4 8.44772 4 9C4 9.55228 4.44772 10 5 10H25C25.5523 10 26 9.55228 26 9C26 8.44772 25.5523 8 25 8H5ZM5 16C4.44772 16 4 16.4477 4 17C4 17.5523 4.44772 18 5 18H25C25.5523 18 26 17.5523 26 17C26 16.4477 25.5523 16 25 16H5ZM4 21C4 20.4477 4.44772 20 5 20H25C25.5523 20 26 20.4477 26 21C26 21.5523 25.5523 22 25 22H5C4.44772 22 4 21.5523 4 21ZM5 12C4.44772 12 4 12.4477 4 13C4 13.5523 4.44772 14 5 14H25C25.5523 14 26 13.5523 26 13C26 12.4477 25.5523 12 25 12H5Z" fill="#2E2F38"/>
</svg>
