<svg width="20" height="20" viewBox="0 0 20 20" fill="none" xmlns="http://www.w3.org/2000/svg">
<path fill-rule="evenodd" clip-rule="evenodd" d="M10 18C5.58172 18 2 14.4183 2 10C2 5.58172 5.58172 2 10 2C14.4183 2 18 5.58172 18 10C18 14.4183 14.4183 18 10 18ZM0 10C0 4.47715 4.47715 0 10 0C15.5228 0 20 4.47715 20 10C20 15.5228 15.5228 20 10 20C4.47715 20 0 15.5228 0 10ZM10.0104 7.24007C10.6979 7.24007 11.2551 6.68278 11.2551 5.99534C11.2551 5.30789 10.6979 4.75061 10.0104 4.75061C9.32297 4.75061 8.76569 5.30789 8.76569 5.99534C8.76569 6.68278 9.32297 7.24007 10.0104 7.24007ZM10 7.99994C10.5523 7.99994 11 8.44767 11 8.99995L10.9999 15C10.9999 15.5522 10.5522 15.9999 9.99993 15.9999C9.44765 15.9999 8.99994 15.5522 8.99995 14.9999L9.00003 8.99992C9.00004 8.44764 9.44776 7.99993 10 7.99994Z" fill="#2E2F38"/>
</svg>
