<svg width="30" height="30" viewBox="0 0 30 30" fill="none" xmlns="http://www.w3.org/2000/svg">
<path fill-rule="evenodd" clip-rule="evenodd" d="M5.80113 7.93141C8.23327 5.3562 12.2015 5.3562 14.6337 7.93141L15 8.3193L15.3663 7.93141C17.7985 5.3562 21.7667 5.3562 24.1989 7.93141C26.6004 10.4742 26.6004 14.5744 24.1989 17.1172L24.183 17.1336L15.7111 25.703C15.5233 25.8931 15.2672 26 15 26C14.7328 26 14.4767 25.8931 14.2889 25.703L5.81699 17.1336L5.80113 17.1172C3.39962 14.5744 3.39962 10.4742 5.80113 7.93141ZM13.1796 9.30465C11.5367 7.56512 8.89805 7.56512 7.25515 9.30465C5.5841 11.074 5.58162 13.9634 7.24771 15.736L15 23.5776L22.7523 15.736C24.4184 13.9634 24.4159 11.074 22.7448 9.30465C21.102 7.56512 18.4633 7.56512 16.8204 9.30465L15.727 10.4623C15.5381 10.6623 15.2751 10.7757 15 10.7757C14.7249 10.7757 14.4619 10.6623 14.273 10.4623L13.1796 9.30465Z" fill="#2E2F38"/>
</svg>
