<svg width="20" height="20" viewBox="0 0 20 20" fill="none" xmlns="http://www.w3.org/2000/svg">
<path d="M13 15C13.5523 15 14 14.5523 14 14C14 13.4477 13.5523 13 13 13H7C6.44772 13 6 13.4477 6 14C6 14.5523 6.44772 15 7 15H13Z" fill="#2E2F38"/>
<path d="M14 10C14 10.5523 13.5523 11 13 11H7C6.44772 11 6 10.5523 6 10C6 9.44771 6.44772 9 7 9H13C13.5523 9 14 9.44771 14 10Z" fill="#2E2F38"/>
<path d="M9 7C9.55228 7 10 6.55228 10 6C10 5.44772 9.55228 5 9 5H7C6.44772 5 6 5.44772 6 6C6 6.55228 6.44772 7 7 7H9Z" fill="#2E2F38"/>
<path fill-rule="evenodd" clip-rule="evenodd" d="M4 19C2.89543 19 2 18.1046 2 17V3C2 1.89543 2.89543 1 4 1H12.5858C12.851 1 13.1054 1.10536 13.2929 1.29289L17.7071 5.70711C17.8946 5.89464 18 6.149 18 6.41421V17C18 18.1046 17.1046 19 16 19H4ZM16 7V17H4V3H12C12 3 11.9989 4.81686 11.9995 6.00162C11.9997 6.55366 12.4473 7 12.9994 7H16Z" fill="#2E2F38"/>
</svg>
