<svg width="30" height="30" viewBox="0 0 30 30" fill="none" xmlns="http://www.w3.org/2000/svg">
<path fill-rule="evenodd" clip-rule="evenodd" d="M12 4C7.58172 4 4 7.58172 4 12C4 16.4183 7.58172 20 12 20C16.3047 20 19.8154 16.6 19.993 12.3389C22.327 13.1606 24 15.3849 24 18C24 21.3137 21.3137 24 18 24C15.3849 24 13.1606 22.327 12.3389 19.993C12.2265 19.9977 12.1136 20 12 20C11.382 20 10.7804 19.93 10.2027 19.7973C11.0183 23.3502 14.1997 26 18 26C22.4183 26 26 22.4183 26 18C26 14.1997 23.3501 11.0183 19.7973 10.2027C18.9817 6.64987 15.8003 4 12 4ZM6 12C6 8.68629 8.68629 6 12 6C15.3137 6 18 8.68629 18 12C18 15.3137 15.3137 18 12 18C8.68629 18 6 15.3137 6 12Z" fill="#2E2F38"/>
</svg>
