<svg width="30" height="30" viewBox="0 0 30 30" fill="none" xmlns="http://www.w3.org/2000/svg">
<path fill-rule="evenodd" clip-rule="evenodd" d="M11.4999 8.99994C10.1192 8.99994 8.99994 10.1192 8.99994 11.4999C8.99994 12.8807 10.1192 13.9999 11.4999 13.9999C12.8807 13.9999 13.9999 12.8807 13.9999 11.4999C13.9999 10.1192 12.8807 8.99994 11.4999 8.99994ZM10.9999 11.4999C10.9999 11.2238 11.2238 10.9999 11.4999 10.9999C11.7761 10.9999 11.9999 11.2238 11.9999 11.4999C11.9999 11.7761 11.7761 11.9999 11.4999 11.9999C11.2238 11.9999 10.9999 11.7761 10.9999 11.4999Z" fill="#2E2F38"/>
<path fill-rule="evenodd" clip-rule="evenodd" d="M15.9999 18.4999C15.9999 17.1192 17.1192 15.9999 18.4999 15.9999C19.8807 15.9999 20.9999 17.1192 20.9999 18.4999C20.9999 19.8807 19.8807 20.9999 18.4999 20.9999C17.1192 20.9999 15.9999 19.8807 15.9999 18.4999ZM18.4999 17.9999C18.2238 17.9999 17.9999 18.2238 17.9999 18.4999C17.9999 18.7761 18.2238 18.9999 18.4999 18.9999C18.7761 18.9999 18.9999 18.7761 18.9999 18.4999C18.9999 18.2238 18.7761 17.9999 18.4999 17.9999Z" fill="#2E2F38"/>
<path d="M19.7071 11.7071C20.0976 11.3165 20.0976 10.6834 19.7071 10.2928C19.3165 9.90231 18.6834 9.90231 18.2928 10.2928L10.2928 18.2928C9.90231 18.6834 9.90231 19.3165 10.2928 19.7071C10.6834 20.0976 11.3165 20.0976 11.7071 19.7071L19.7071 11.7071Z" fill="#2E2F38"/>
<path fill-rule="evenodd" clip-rule="evenodd" d="M16.8931 3.2509C15.7904 2.35387 14.2095 2.35387 13.1068 3.2509L12.4239 3.80646C12.2028 3.98629 11.9155 4.06326 11.6342 4.01806L10.7649 3.8784C9.36145 3.6529 7.99236 4.44334 7.4859 5.77155L7.17224 6.59415C7.07071 6.86041 6.86041 7.07071 6.59415 7.17224L5.77155 7.4859C4.44334 7.99236 3.6529 9.36145 3.8784 10.7649L4.01806 11.6342C4.06326 11.9155 3.98629 12.2028 3.80646 12.4239L3.2509 13.1068C2.35387 14.2095 2.35387 15.7904 3.2509 16.8931L3.80646 17.576C3.98629 17.7971 4.06326 18.0844 4.01806 18.3657L3.8784 19.2349C3.6529 20.6384 4.44334 22.0075 5.77155 22.514L6.59415 22.8277C6.86041 22.9292 7.07071 23.1395 7.17224 23.4057L7.4859 24.2283C7.99236 25.5565 9.36145 26.347 10.7649 26.1215L11.6342 25.9818C11.9155 25.9366 12.2028 26.0136 12.4239 26.1934L13.1068 26.749C14.2095 27.646 15.7904 27.646 16.8931 26.749L17.576 26.1934C17.7971 26.0136 18.0844 25.9366 18.3657 25.9818L19.2349 26.1215C20.6384 26.347 22.0075 25.5565 22.514 24.2283L22.8276 23.4057C22.9292 23.1395 23.1395 22.9292 23.4057 22.8276L24.2283 22.514C25.5565 22.0075 26.347 20.6384 26.1215 19.2349L25.9818 18.3657C25.9366 18.0844 26.0136 17.7971 26.1934 17.576L26.749 16.8931C27.646 15.7904 27.646 14.2095 26.749 13.1068L26.1934 12.4239C26.0136 12.2028 25.9366 11.9155 25.9818 11.6342L26.1215 10.7649C26.347 9.36145 25.5565 7.99236 24.2283 7.4859L23.4057 7.17224C23.1395 7.07071 22.9292 6.86041 22.8276 6.59415L22.514 5.77155C22.0075 4.44334 20.6384 3.6529 19.2349 3.8784L18.3657 4.01806C18.0844 4.06326 17.7971 3.98629 17.576 3.80646L16.8931 3.2509ZM14.3689 4.80238C14.7365 4.50337 15.2634 4.50337 15.631 4.80238L16.3139 5.35794C16.9771 5.89742 17.8389 6.12835 18.683 5.99273L19.5522 5.85307C20.0201 5.77791 20.4764 6.04139 20.6452 6.48412L20.9589 7.30672C21.2635 8.10551 21.8944 8.73641 22.6932 9.04099L23.5158 9.35466C23.9585 9.52348 24.222 9.97984 24.1468 10.4477L24.0072 11.3169C23.8715 12.161 24.1025 13.0228 24.6419 13.686L25.1975 14.3689C25.4965 14.7365 25.4965 15.2634 25.1975 15.631L24.6419 16.3139C24.1025 16.9771 23.8715 17.8389 24.0072 18.683L24.1468 19.5522C24.222 20.0201 23.9585 20.4764 23.5158 20.6452L22.6932 20.9589C21.8944 21.2635 21.2635 21.8944 20.9589 22.6932L20.6452 23.5158C20.4764 23.9585 20.0201 24.222 19.5522 24.1468L18.683 24.0072C17.8389 23.8715 16.9771 24.1025 16.3139 24.6419L15.631 25.1975C15.2634 25.4965 14.7365 25.4965 14.3689 25.1975L13.686 24.6419C13.0228 24.1025 12.161 23.8715 11.3169 24.0072L10.4477 24.1468C9.97984 24.222 9.52348 23.9585 9.35466 23.5158L9.04099 22.6932C8.73641 21.8944 8.10551 21.2635 7.30672 20.9589L6.48412 20.6452C6.04139 20.4764 5.77791 20.0201 5.85307 19.5522L5.99273 18.683C6.12835 17.8389 5.89742 16.9771 5.35794 16.3139L4.80238 15.631C4.50337 15.2634 4.50337 14.7365 4.80238 14.3689L5.35794 13.686C5.89742 13.0228 6.12835 12.161 5.99273 11.3169L5.85307 10.4477C5.77791 9.97984 6.04139 9.52348 6.48412 9.35466L7.30672 9.04099C8.10551 8.73641 8.73641 8.10551 9.04099 7.30672L9.35466 6.48412C9.52348 6.04139 9.97984 5.77791 10.4477 5.85307L11.3169 5.99273C12.161 6.12835 13.0228 5.89742 13.686 5.35794L14.3689 4.80238Z" fill="#2E2F38"/>
</svg>
