<svg width="30" height="30" viewBox="0 0 30 30" fill="none" xmlns="http://www.w3.org/2000/svg">
<path fill-rule="evenodd" clip-rule="evenodd" d="M11.8479 9.98837C11.3021 9.90439 10.9276 9.39381 11.0116 8.84794C11.0956 8.30208 11.6062 7.92765 12.1521 8.01163L25.1521 10.0116C25.7341 10.1012 26.1131 10.6717 25.9701 11.2429L24.3808 17.5848C24.0977 19.0102 22.8338 20.0277 21.4 20L10.6992 19.9998C9.24624 20.0277 7.98227 19.0102 7.69945 17.5863L5.34118 5.80374C5.24764 5.33639 4.83726 5 4.36063 5H2C1.44772 5 1 4.55228 1 4C1 3.44772 1.44772 3 2 3H4.36063C5.79051 3 7.02167 4.00916 7.30229 5.41123L9.66084 17.1952C9.75521 17.6703 10.1765 18.0095 10.68 18L21.4192 18.0002C21.9035 18.0095 22.3248 17.6703 22.4299 17.1471L23.7634 11.8215L11.8479 9.98837ZM21 27C19.8954 27 19 26.1046 19 25C19 23.8954 19.8954 23 21 23C22.1046 23 23 23.8954 23 25C23 26.1046 22.1046 27 21 27ZM10 27C8.89543 27 8 26.1046 8 25C8 23.8954 8.89543 23 10 23C11.1046 23 12 23.8954 12 25C12 26.1046 11.1046 27 10 27Z" fill="#EFEFEF"/>
</svg>
